<?xml version="1.0" ?><!DOCTYPE svg  PUBLIC '-//W3C//DTD SVG 1.1//EN'
  'http://www.w3.org/Graphics/SVG/1.1/DTD/svg11.dtd'>
<svg enable-background="new 0 0 512 512" height="512px" id="Layer_1" version="1.1" viewBox="0 0 512 512" width="512px" xml:space="preserve" xmlns="http://www.w3.org/2000/svg" xmlns:xlink="http://www.w3.org/1999/xlink"><g><path d="M92.424,430c-0.204,0-21.534-0.28-42.407-12.729C23.503,401.457,9.5,374,8.348,335h158.128   c1.624,53,27.908,79.327,50.069,91.64c2.16,1.201,4.318,2.36,6.461,3.36H92.424z" fill="#7EBDDC"/><path d="M161.439,340c2.698,0,22.437,70,42.208,85H92.424c-0.195,0-19.708-0.468-39.359-12.051   C29.223,398.896,16.065,375,13.871,340h147.714 M171.668,330H3c0,105,89.424,105,89.424,105h155.561   C247.985,435,171.668,435,171.668,330L171.668,330z" fill="#0776B7"/></g><path d="M114.771,430h137.06c-4.14-13.343-6.371-27.524-6.371-42.229c0-76.308,60.059-138.583,135.485-142.146  c-0.727-0.998-1.454-1.996-2.183-2.997c-30.877-42.382-65.874-90.486-65.874-145.595C312.888,45.867,324.147,20,332.819,8H78.34  c-2.656,1-13.509,5.266-24.194,16.35C37.695,41.416,29.354,66.011,29.354,97.177c0,51.712,31.616,96.283,62.192,139.382  c26.634,37.541,51.79,73.015,51.79,109.261C143.336,393.523,127.394,418,114.771,430z" fill="#7EBDDC"/><polygon fill="#FFFFFF" points="287.625,172 97.875,172 76.792,151 266.542,151 "/><polygon fill="#FFFFFF" points="329.791,224 140.042,224 118.958,203 308.707,203 "/><path d="M247.985,361H192.75l-10.542,22h63.339C245.795,375.505,246.622,368.158,247.985,361z" fill="#FFFFFF"/><path d="M269.24,309h-87.031l10.542,21h64.933C260.951,322.65,264.824,315.63,269.24,309z" fill="#FFFFFF"/><path d="M333.949,256H150.583l21.084,21h126.768C309.111,268.379,321.056,261.271,333.949,256z" fill="#FFFFFF"/><g><path d="M345.172,2.975c0,0-0.018,0.01-0.042,0.024h0.042V2.975z" fill="#0776B7"/><path d="M97.875,435h155.62c-1.154-3.28-2.19-6.615-3.105-10H126.456c11.292-15,22.15-39.36,22.15-79.044   c0-37.926-25.628-74.134-52.761-112.379c-30.098-42.424-61.22-86.334-61.22-136.365c0-29.476,7.707-52.348,22.904-68.393   C66.701,19.139,76.044,15,79.261,14H323h0.355c-7.972,0-15.739,40.502-15.739,83.399c0,56.824,35.534,105.483,66.887,148.516   c0.038,0.052,0.075,0.103,0.112,0.155c4.197-0.385,8.445-0.593,12.739-0.605c-32.348-44.506-69.196-92.472-69.196-148.345   c0-77.541,25.848-93.463,26.972-94.119H77.518c0,0-53.434,14.907-53.434,94.17c0,99.58,113.98,173.992,113.98,248.517   C138.065,420.198,97.875,435,97.875,435z" fill="#0776B7"/></g><path d="M509,387.771C509,454.727,454.727,509,387.771,509s-121.229-54.272-121.229-121.229  s54.271-121.229,121.229-121.229S509,320.814,509,387.771z" fill="#00B086"/><rect fill="#FFFFFF" height="158" width="32" x="372" y="309"/><rect fill="#FFFFFF" height="32" width="158" x="309" y="372"/><g><path d="M166.325,103c-1.451-53-24.848-79.172-44.573-91.501C119.744,10.244,117.738,9,115.749,8h230.039   c0.204,0,21.533,0.281,42.405,12.73C414.705,36.543,428.709,64,429.859,103H166.325z" fill="#7EBDDC"/><path d="M345.759,14c0.47,0,20.59,0.195,40.097,11.975C409.243,40.096,422.161,64,424.337,98H171.386   c-2.432-45-20.242-70-37.979-84H346 M345.788,3H76.792c0,0,84.333,0,84.333,105h274.082c0-105-89.419-105.208-89.419-105.208V3z" fill="#0776B7"/></g></svg>
