<?xml version="1.0" ?>
<svg viewBox="0 0 148.98 130.97" xmlns="http://www.w3.org/2000/svg">
  <defs>
    <style>.ac1754a8-4c1b-4d5c-8111-11614e3e41ce{fill:#ebba16;}.be4925a1-aa77-495e-8a94-14c2d4d6d87c{fill:#fff;}.\36
      ed9a4b0-328e-492c-a2ef-9480d6a6a4f6{fill:#efce4a;}.\35 5c4cc6d-4b04-47e3-973b-4ba437b5a6b4{fill:#27ae60;}
    </style>
  </defs>
  <title/>
  <g data-name="Layer 2" id="03941b00-7a40-491a-a4fa-26b8659d6a9a">
    <g data-name="Layer 1" id="a626724d-fe8f-4e9f-8851-8a2ad2f0e209">
      <path class="ac1754a8-4c1b-4d5c-8111-11614e3e41ce"
            d="M120.08,12.8H51.46A26.38,26.38,0,0,0,28.9,0H5.33A5.34,5.34,0,0,0,0,5.33v99.33A6.32,6.32,0,0,0,6.3,111H120.08a6.32,6.32,0,0,0,6.3-6.3V19.11A6.32,6.32,0,0,0,120.08,12.8Z"/>
      <rect class="be4925a1-aa77-495e-8a94-14c2d4d6d87c" height="83.79" rx="12" ry="12" width="100.44" x="12.97"
            y="26.33"/>
      <path class="6ed9a4b0-328e-492c-a2ef-9480d6a6a4f6"
            d="M118.2,110.12H8.53c-4.5,0-7.07-3.68-5.72-8.18L19.73,45.78c1.36-4.5,6.15-8.18,10.65-8.18H140c4.5,0,7.07,3.68,5.72,8.18l-16.92,56.15C127.49,106.44,122.7,110.12,118.2,110.12Z"/>
      <circle class="55c4cc6d-4b04-47e3-973b-4ba437b5a6b4" cx="118.98" cy="100.97" r="30"/>
      <path class="be4925a1-aa77-495e-8a94-14c2d4d6d87c"
            d="M138.76,97.51H122.44V81.19a3.46,3.46,0,1,0-6.92,0V97.51H99.19a3.46,3.46,0,0,0,0,6.92h16.32v16.32a3.46,3.46,0,1,0,6.92,0V104.43h16.32a3.46,3.46,0,0,0,0-6.92Z"/>
    </g>
  </g>
</svg>
