<?xml version="1.0" ?><!DOCTYPE svg  PUBLIC '-//W3C//DTD SVG 1.1//EN'
  'http://www.w3.org/Graphics/SVG/1.1/DTD/svg11.dtd'>
<svg enable-background="new 0 0 512 512" height="512px" id="Layer_1" version="1.1" viewBox="0 0 512 512" width="512px" xml:space="preserve" xmlns="http://www.w3.org/2000/svg" xmlns:xlink="http://www.w3.org/1999/xlink"><path d="M432.379,309.867c-17.049-8.314-41.564-16.693-64.499-27.731c-1.066,26.302-11.45,56.042-11.45,56.042  s-9.784-20.227-31.201-25.68c0,0,8.806-7.75,14.15-18.642c2.747-5.558,4.504-13.356,5.936-19.356h-72.211  c1.431,6,2.199,13.799,4.945,19.356c5.346,10.892,15.035,18.794,15.035,18.794c-21.418,5.453-31.195,25.604-31.195,25.604  s-10.385-29.519-11.451-55.833c-21.209,10.207-43.754,18.078-60.501,26.078H224.5v78h-54v1.438  c44,12.472,108.473,14.523,138.406,14.523c34.237,0,114.252-2.688,155.479-20.568C464.386,351.015,453.432,320.162,432.379,309.867z  " fill="#CF593B"/><path d="M347.5,268.921c0,25.982-17.504,46.534-38.492,46.534c-20.99,0-38.508-20.552-38.508-46.534V207.5h77  V268.921z" fill="#E9B764"/><path d="M390.801,178.053c0-11.152-6.045-16.734-11.463-16.734c-2.301,0-5.838-1.027-8.838-3.529V109.5h-123v48.289  c-4,2.502-6.21,3.529-8.517,3.529c-5.396,0-11.305,5.583-11.305,16.734c0,16.72,17.68,34.219,27.244,43.266  c7.363,29.799,27.604,50.693,54.366,50.693c26.751,0,46.982-20.895,54.347-50.693C373.183,212.271,390.801,194.772,390.801,178.053" fill="#FFC972"/><path d="M248.5,195.979l-10-27.791v-39.872c0,0,0.111-62.693,70.721-62.693c63.544,0,63.382,36.204,63.382,36.204  s6.897,3.694,6.897,20.782v45.578l-11,27.791v-36.22c0,0-12.959-39.83-24.15-39.83c-11.22,0-1.579,32.592-35.16,32.592  c-33.588,0-49.894-14.49-49.894-14.49s-4.796,21.729-10.796,21.729V195.979z" fill="#7B7A7A"/><polygon fill="#55AC89" points="216.5,315.5 163.5,315.5 163.5,262.5 100.5,262.5 100.5,315.5 46.5,315.5 46.5,378.5 100.5,378.5   100.5,432.5 163.5,432.5 163.5,378.5 216.5,378.5 "/></svg>
