<?xml version="1.0" ?><!DOCTYPE svg  PUBLIC '-//W3C//DTD SVG 1.1//EN'
  'http://www.w3.org/Graphics/SVG/1.1/DTD/svg11.dtd'>
<svg enable-background="new 0 0 32 32" height="32px" id="Layer_1" version="1.1" viewBox="0 0 32 32" width="32px" xml:space="preserve" xmlns="http://www.w3.org/2000/svg" xmlns:xlink="http://www.w3.org/1999/xlink"><g><path d="M11.379,24.863L16,20.243v-8.485l-8.863,8.863C6.414,19.238,6,17.668,6,16c0-5.523,4.477-10,10-10V0   C7.163,0,0,7.163,0,16s7.163,16,16,16v-6C14.332,26,12.762,25.586,11.379,24.863z" fill="#DF4937"/><path d="M16,0v6c1.668,0,3.238,0.414,4.621,1.137L16,11.757v8.485l8.863-8.863C25.586,12.762,26,14.332,26,16   c0,5.523-4.477,10-10,10v6c8.837,0,16-7.163,16-16S24.837,0,16,0z" fill="#B6312E"/></g></svg>
