<?xml version="1.0" ?><!DOCTYPE svg  PUBLIC '-//W3C//DTD SVG 1.1//EN'
  'http://www.w3.org/Graphics/SVG/1.1/DTD/svg11.dtd'>
<svg enable-background="new 0 0 512 512" id="Layer_1" version="1.1" viewBox="0 0 512 512" xml:space="preserve" xmlns="http://www.w3.org/2000/svg" xmlns:xlink="http://www.w3.org/1999/xlink"><g><g><path d="M503,9c-9.3-9.3-24.4-9.3-33.7,0L281.1,197.2l33.7,33.7L503,42.7C512.3,33.4,512.3,18.3,503,9z" fill="#F1786B"/><path d="M243.6,510c0,0-3.7-43,56.4-140.2c60.2-97.2,12.5-141.1,12.5-141.1l-14.6-14.6l-14.6-14.6    c0,0-43.9-47.7-141.1,12.5C45,272.1,2,268.4,2,268.4l64.3,64.3c0,0,58.7-23.7,97.4-46.8l-81.9,62.4l36.8,36.8l44.1-35.9    l-35.9,44.1l36.8,36.8l62.4-81.9c-23.1,38.7-46.8,97.4-46.8,97.4L243.6,510z" fill="#FBD984"/></g><path d="M73.4,412.6c13.7,18.6-7,39.3-25.6,25.6c-0.2-0.2-0.4-0.4-0.6-0.6c-13.7-18.6,7-39.3,25.6-25.6   C73.1,412.2,73.3,412.4,73.4,412.6z" fill="#DBDFE0"/><path d="M121.3,423.4c7.7,10.5-4,22.1-14.4,14.4c-0.1-0.1-0.3-0.2-0.4-0.4c-7.7-10.5,4-22.1,14.4-14.4   C121,423.1,121.2,423.3,121.3,423.4z" fill="#DBDFE0"/><path d="M50.8,362.7c7.6,10.3-3.9,21.7-14.2,14.2c-0.1-0.1-0.3-0.2-0.4-0.4c-7.6-10.3,3.9-21.7,14.2-14.2   C50.6,362.4,50.7,362.5,50.8,362.7z" fill="#DBDFE0"/><path d="M40.8,464.4c11.8,16-6,33.8-22,22c-0.2-0.1-0.4-0.3-0.5-0.5c-11.8-16,6-33.8,22-22   C40.5,464,40.6,464.2,40.8,464.4z" fill="#DBDFE0"/><path d="M305.4,473.5c9.6,13-4.9,27.6-18,18c-0.2-0.1-0.3-0.3-0.4-0.4c-9.6-13,4.9-27.6,18-18   C305.1,473.2,305.3,473.3,305.4,473.5z" fill="#DBDFE0"/><path d="M381.7,441.5c9,12.2-4.6,25.9-16.9,16.9c-0.2-0.1-0.3-0.3-0.4-0.4c-9-12.2,4.6-25.9,16.9-16.9   C381.4,441.2,381.6,441.4,381.7,441.5z" fill="#DBDFE0"/><path d="M457.9,465c10.1,13.6-5.2,28.9-18.8,18.8c-0.2-0.1-0.3-0.3-0.4-0.4c-10.1-13.6,5.2-28.9,18.8-18.8   C457.6,464.7,457.7,464.9,457.9,465z" fill="#DBDFE0"/><path d="M151.8,465.2c20.5,27.7-10.5,58.6-38.2,38.2c-0.3-0.2-0.6-0.5-0.8-0.8c-20.5-27.7,10.5-58.6,38.2-38.2   C151.3,464.6,151.6,464.9,151.8,465.2z" fill="#DBDFE0"/></g></svg>
