<?xml version="1.0" ?>
<svg style="enable-background:new 0 0 128 128;" version="1.1" viewBox="0 0 128 128" xml:space="preserve" xmlns="http://www.w3.org/2000/svg" xmlns:xlink="http://www.w3.org/1999/xlink"><style type="text/css">
	.st0{fill:#757575;}
	.st1{fill:#FFFFFF;}
</style><g id="bg"/><g id="icons"><path class="st0" d="M37.9,43.6l5.6-5.6c0.6-0.6,1.6-0.6,2.2,0l44.3,44.3c0.6,0.6,0.6,1.6,0,2.2l-5.6,5.6c-0.6,0.6-1.6,0.6-2.2,0   L37.9,45.7C37.3,45.1,37.3,44.2,37.9,43.6z"/><path class="st0" d="M90.1,43.6l-5.6-5.6c-0.6-0.6-1.6-0.6-2.2,0L37.9,82.3c-0.6,0.6-0.6,1.6,0,2.2l5.6,5.6c0.6,0.6,1.6,0.6,2.2,0   l44.3-44.3C90.7,45.1,90.7,44.2,90.1,43.6z"/></g></svg>
