<?xml version="1.0" ?><!DOCTYPE svg  PUBLIC '-//W3C//DTD SVG 1.1//EN'
  'http://www.w3.org/Graphics/SVG/1.1/DTD/svg11.dtd'>
<svg enable-background="new 0 0 32 32" height="32px" id="Layer_1" version="1.1" viewBox="0 0 32 32" width="32px" xml:space="preserve" xmlns="http://www.w3.org/2000/svg" xmlns:xlink="http://www.w3.org/1999/xlink"><g><polygon fill="#000000" points="6,14 10,18 6,22 7.5,23.5 13,18 7.5,12.5  "/><path d="M14,22v2h2.059c0.077-0.695,0.239-1.362,0.464-2H14z" fill="#000000"/><path d="M2,28V8h28v9.518c0.756,0.506,1.429,1.125,2,1.831V5c0-1.7-1.3-3-3-3H3C1.3,2,0,3.3,0,5v22c0,1.7,1.3,3,3,3   h14.518c-0.412-0.616-0.743-1.289-0.995-2H2z" fill="#000000"/></g><g><path d="M25,22.9c-1.2,0-2.1,0.9-2.1,2.1s0.9,2.1,2.1,2.1s2.1-0.9,2.1-2.1S26.2,22.9,25,22.9z" fill="#3F007C"/><path d="M25,18c-3.85,0-7,3.15-7,7s3.15,7,7,7s7-3.15,7-7S28.85,18,25,18z M29.6,26c-0.1,0.7-0.4,1.1-0.7,1.6l1,1   l-1.3,1.3l-1-1c-0.6,0.3-1,0.6-1.6,0.7V31h-1h-0.8v-1.4c-0.6-0.1-1.3-0.4-1.8-0.7l-1,1l-1.3-1.3l1-1c-0.3-0.6-0.6-1-0.7-1.6H19   v-1.8h1.4c0.1-0.6,0.4-1.3,0.7-1.8l-1-1l1.3-1.3l1,1c0.5-0.3,1.2-0.6,1.8-0.7V19H25h1v1.4c0.7,0.1,1.1,0.4,1.6,0.7l1-1l1.3,1.3   l-1,1c0.3,0.5,0.6,1.2,0.7,1.8H31V26H29.6z" fill="#3F007C"/></g></svg>
