<?xml version="1.0" ?><!DOCTYPE svg  PUBLIC '-//W3C//DTD SVG 1.1//EN'
  'http://www.w3.org/Graphics/SVG/1.1/DTD/svg11.dtd'>
<svg enable-background="new 0 0 65 65" height="65px" id="Layer_1" version="1.1" viewBox="0 0 65 65" width="65px" xml:space="preserve" xmlns="http://www.w3.org/2000/svg" xmlns:xlink="http://www.w3.org/1999/xlink"><path d="M64.743,16.547c0.001-0.041,0.004-0.081,0.002-0.121c-0.003-0.052-0.013-0.103-0.021-0.154  c-0.008-0.045-0.013-0.091-0.023-0.135c-0.013-0.047-0.031-0.093-0.048-0.139c-0.017-0.044-0.03-0.089-0.051-0.132  s-0.046-0.082-0.07-0.123c-0.026-0.043-0.051-0.087-0.081-0.127c-0.024-0.033-0.054-0.063-0.082-0.095  c-0.038-0.043-0.077-0.087-0.12-0.126c-0.009-0.008-0.016-0.017-0.024-0.025c-0.021-0.018-0.046-0.03-0.068-0.047  c-0.048-0.037-0.097-0.073-0.149-0.104c-0.036-0.021-0.073-0.038-0.11-0.056c-0.051-0.024-0.101-0.048-0.154-0.066  c-0.045-0.016-0.09-0.026-0.135-0.037c-0.036-0.009-0.07-0.023-0.107-0.029c-0.016-0.002-0.03-0.001-0.046-0.003  c-0.046-0.006-0.093-0.007-0.14-0.009c-0.051-0.002-0.103-0.006-0.153-0.002c-0.048,0.002-0.095,0.012-0.143,0.019  c-0.046,0.007-0.093,0.013-0.138,0.024c-0.056,0.014-0.109,0.036-0.164,0.056c-0.034,0.013-0.068,0.023-0.102,0.039  c-0.057,0.026-0.11,0.061-0.164,0.095c-0.028,0.018-0.057,0.033-0.084,0.052c-0.046,0.034-0.089,0.074-0.132,0.114  c-0.031,0.029-0.063,0.056-0.091,0.087c-0.012,0.012-0.024,0.021-0.035,0.034L45.631,34.83L33.858,9.723  c-0.011-0.022-0.026-0.041-0.037-0.063c-0.025-0.046-0.052-0.091-0.081-0.135c-0.026-0.04-0.054-0.077-0.084-0.114  c-0.031-0.038-0.064-0.074-0.1-0.109s-0.071-0.069-0.109-0.1c-0.036-0.029-0.074-0.057-0.113-0.083  c-0.044-0.03-0.089-0.057-0.136-0.081c-0.021-0.012-0.039-0.027-0.062-0.037c-0.021-0.01-0.042-0.014-0.063-0.022  c-0.049-0.02-0.098-0.037-0.148-0.052c-0.045-0.014-0.09-0.026-0.135-0.035c-0.05-0.01-0.1-0.016-0.15-0.021  c-0.045-0.004-0.091-0.008-0.136-0.008c-0.052,0-0.104,0.004-0.157,0.009c-0.044,0.004-0.087,0.01-0.13,0.018  c-0.052,0.01-0.102,0.023-0.152,0.039c-0.045,0.014-0.089,0.028-0.132,0.046c-0.023,0.009-0.047,0.014-0.07,0.024  c-0.024,0.011-0.044,0.028-0.068,0.041c-0.042,0.022-0.083,0.047-0.124,0.074c-0.043,0.028-0.084,0.058-0.123,0.09  c-0.036,0.029-0.069,0.06-0.102,0.093c-0.038,0.037-0.073,0.075-0.106,0.116c-0.028,0.034-0.054,0.07-0.079,0.107  c-0.031,0.046-0.059,0.093-0.085,0.142c-0.011,0.021-0.025,0.038-0.035,0.059L19.369,34.831L2.891,15.535  c-0.008-0.009-0.018-0.016-0.026-0.025c-0.038-0.042-0.08-0.08-0.123-0.117c-0.033-0.029-0.064-0.06-0.099-0.085  c-0.04-0.03-0.083-0.054-0.125-0.079c-0.041-0.025-0.082-0.051-0.125-0.072s-0.089-0.035-0.134-0.051  c-0.045-0.017-0.089-0.035-0.136-0.046c-0.047-0.012-0.096-0.018-0.145-0.025c-0.047-0.007-0.094-0.016-0.142-0.019  c-0.046-0.002-0.093,0.001-0.14,0.002c-0.053,0.002-0.104,0.003-0.157,0.01c-0.014,0.002-0.027,0-0.041,0.003  c-0.034,0.006-0.063,0.019-0.096,0.026c-0.05,0.012-0.101,0.024-0.149,0.041c-0.05,0.018-0.096,0.039-0.143,0.061  C1.07,15.178,1.03,15.197,0.99,15.22c-0.05,0.029-0.096,0.063-0.141,0.098c-0.024,0.018-0.05,0.031-0.073,0.051  c-0.01,0.008-0.017,0.019-0.026,0.027c-0.042,0.038-0.079,0.08-0.116,0.121c-0.029,0.033-0.06,0.064-0.086,0.1  c-0.029,0.04-0.054,0.083-0.079,0.126c-0.024,0.041-0.051,0.081-0.071,0.124c-0.021,0.043-0.035,0.09-0.052,0.136  C0.33,16.046,0.312,16.089,0.3,16.135c-0.012,0.047-0.018,0.096-0.025,0.145c-0.007,0.047-0.017,0.095-0.019,0.143  c-0.003,0.045,0,0.09,0.002,0.136c0.002,0.055,0.003,0.108,0.011,0.163c0.001,0.013,0,0.025,0.002,0.039l6.458,38.131  c0.001,0.006,0.005,0.01,0.006,0.016c0.029,0.161,0.086,0.311,0.162,0.448c0.012,0.022,0.022,0.044,0.035,0.064  c0.079,0.129,0.176,0.243,0.289,0.343c0.02,0.018,0.04,0.033,0.06,0.049c0.118,0.094,0.248,0.172,0.39,0.227  c0.02,0.008,0.039,0.012,0.059,0.019c0.15,0.051,0.308,0.084,0.475,0.085c0.001,0,0.001,0,0.002,0c0,0,0,0,0.001,0s0,0,0.001,0  h48.584h0.001h0.001c0.001,0,0.002,0,0.003,0c0.166-0.001,0.324-0.034,0.474-0.085c0.02-0.007,0.039-0.011,0.059-0.019  c0.144-0.055,0.273-0.133,0.391-0.227c0.021-0.016,0.04-0.031,0.059-0.049c0.113-0.1,0.212-0.214,0.291-0.344  c0.012-0.02,0.021-0.041,0.033-0.062c0.076-0.14,0.134-0.29,0.163-0.451c0.001-0.006,0.004-0.01,0.005-0.015l6.458-38.131  c0.002-0.011,0.001-0.022,0.002-0.033C64.739,16.667,64.741,16.607,64.743,16.547z M55.525,53.141H9.475L4.136,21.613l14.462,16.935  c0.003,0.004,0.007,0.006,0.01,0.01c0.133,0.153,0.298,0.283,0.494,0.375c0.003,0.002,0.007,0.002,0.01,0.004  c0.065,0.029,0.134,0.048,0.203,0.068c0.036,0.011,0.071,0.027,0.107,0.035c0.074,0.017,0.15,0.02,0.226,0.024  c0.03,0.002,0.06,0.01,0.089,0.01c0,0,0,0,0,0c0,0,0,0,0.001,0c0.002,0,0.004-0.001,0.006-0.001c0.157-0.001,0.311-0.032,0.458-0.08  c0.047-0.016,0.09-0.04,0.136-0.061c0.106-0.047,0.206-0.104,0.299-0.174c0.023-0.018,0.052-0.024,0.075-0.044  c0.035-0.03,0.063-0.065,0.094-0.099c0.024-0.024,0.048-0.047,0.07-0.073c0.085-0.1,0.158-0.207,0.212-0.321  c0.002-0.004,0.005-0.007,0.007-0.011L32.5,13.893l11.402,24.318c0.002,0.004,0.005,0.007,0.007,0.011  c0.056,0.115,0.128,0.223,0.214,0.322c0.021,0.025,0.044,0.047,0.067,0.07c0.032,0.033,0.06,0.069,0.096,0.101  c0.023,0.021,0.053,0.026,0.077,0.045c0.093,0.069,0.19,0.126,0.296,0.172c0.046,0.021,0.09,0.046,0.138,0.062  c0.146,0.048,0.299,0.078,0.455,0.08c0.002,0,0.005,0.001,0.008,0.001h0.001h0.001c0.031,0,0.063-0.008,0.096-0.011  c0.073-0.005,0.147-0.008,0.22-0.023c0.033-0.007,0.064-0.022,0.097-0.031c0.072-0.021,0.145-0.041,0.214-0.073  c0.003-0.001,0.007-0.001,0.01-0.003c0.194-0.091,0.358-0.22,0.492-0.372c0.003-0.005,0.008-0.008,0.012-0.012l14.463-16.936  L55.525,53.141z"/></svg>
