<?xml version="1.0" ?><!DOCTYPE svg  PUBLIC '-//W3C//DTD SVG 1.1//EN'
  'http://www.w3.org/Graphics/SVG/1.1/DTD/svg11.dtd'>
<svg enable-background="new 0 0 512 512" height="512px" id="Layer_1" version="1.1" viewBox="0 0 512 512" width="512px" xml:space="preserve" xmlns="http://www.w3.org/2000/svg" xmlns:xlink="http://www.w3.org/1999/xlink"><g><g><g><radialGradient cx="256.0518" cy="492.248" gradientUnits="userSpaceOnUse" id="SVGID_1_" r="416.2471"><stop offset="0.0056" style="stop-color:#FF8B42"/><stop offset="0.1467" style="stop-color:#FE8540"/><stop offset="0.3363" style="stop-color:#FA7439"/><stop offset="0.5536" style="stop-color:#F3582D"/><stop offset="0.7894" style="stop-color:#EA311E"/><stop offset="1" style="stop-color:#E1080D"/></radialGradient><path d="M256.049,20.055c-130.182,0-236.095,105.913-236.095,236.094      c0,130.189,105.913,236.099,236.095,236.099c130.188,0,236.101-105.91,236.101-236.099      C492.149,125.968,386.237,20.055,256.049,20.055z" fill="url(#SVGID_1_)"/><g><linearGradient gradientUnits="userSpaceOnUse" id="SVGID_2_" x1="256.0542" x2="256.0542" y1="846.792" y2="-58.9836"><stop offset="0.0056" style="stop-color:#FF8B42"/><stop offset="0.1467" style="stop-color:#FE8540"/><stop offset="0.3363" style="stop-color:#FA7439"/><stop offset="0.5536" style="stop-color:#F3582D"/><stop offset="0.7894" style="stop-color:#EA311E"/><stop offset="1" style="stop-color:#E1080D"/></linearGradient><path d="M8.965,256.149c0,136.251,110.84,247.091,247.084,247.091       c136.251,0,247.094-110.84,247.094-247.091c0-136.246-110.843-247.085-247.094-247.085       C119.805,9.063,8.965,119.903,8.965,256.149z M19.954,256.149c0-130.181,105.913-236.094,236.095-236.094       c130.188,0,236.101,105.913,236.101,236.094c0,130.189-105.912,236.099-236.101,236.099       C125.867,492.248,19.954,386.338,19.954,256.149z" fill="url(#SVGID_2_)"/></g></g><path d="M305.801,278.794l56.788-56.789c13.741-13.74,13.741-36.007,0-49.747     c-13.739-13.731-36.008-13.731-49.749,0l-56.788,56.789l-56.792-56.789c-13.74-13.74-36.007-13.74-49.748,0     c-13.732,13.74-13.732,36.007,0,49.747l56.791,56.792l-56.791,56.792c-13.732,13.739-13.732,36.007,0,49.748     c13.741,13.74,36.008,13.74,49.748,0l56.79-56.791l56.79,56.791c13.741,13.73,36.01,13.73,49.749,0     c13.741-13.75,13.741-36.018,0-49.758L305.801,278.794z" fill="#970A05" opacity="0.6"/><path d="M305.799,256.152l56.79-56.791c13.741-13.742,13.741-36.007,0-49.749     c-13.739-13.731-36.008-13.731-49.749,0l-56.79,56.791l-56.79-56.791c-13.74-13.74-36.007-13.74-49.748,0     c-13.732,13.742-13.732,36.007,0,49.749l56.791,56.789l-56.791,56.792c-13.732,13.741-13.732,36.009,0,49.75     c13.741,13.74,36.008,13.74,49.748,0l56.794-56.795l56.786,56.783c13.741,13.742,36.01,13.742,49.749,0     c13.741-13.74,13.741-35.997,0-49.738L305.799,256.152z" fill="#FFFFFF"/></g></g></svg>
