<?xml version="1.0" ?><!DOCTYPE svg  PUBLIC '-//W3C//DTD SVG 1.1//EN'
  'http://www.w3.org/Graphics/SVG/1.1/DTD/svg11.dtd'>
<svg enable-background="new 0 0 32 32" version="1.1" viewBox="0 0 32 32" xml:space="preserve" xmlns="http://www.w3.org/2000/svg" xmlns:xlink="http://www.w3.org/1999/xlink"><g id="icons"><g><path d="M28,9.5200005V31c0,0.5499992-0.4500008,1-1,1H5c-0.5500002,0-1-0.4500008-1-1V1c0-0.55,0.4499998-1,1-1    h13.6299992c0.1300011,0,0.25,0.03,0.3700008,0.08c0.1299992,0.05,0.2399998,0.12,0.3400002,0.22l8.3699989,8.5199995    C27.8999996,9.0100002,28,9.2600002,28,9.5200005z" fill="#B0B0B0"/><path d="M28,9.5200005V30c0,0.5499992-0.4500008,1-1,1H5c-0.5500002,0-1-0.4500008-1-1V1c0-0.55,0.4499998-1,1-1    h13.6299992c0.1300011,0,0.25,0.03,0.3700008,0.08c0.1299992,0.05,0.2399998,0.12,0.3400002,0.22l8.3699989,8.5199995    C27.8999996,9.0100002,28,9.2600002,28,9.5200005z" fill="#E0E0E0"/><path d="M28,9.5200005V10h-8c-0.5523148,0-1-0.4476995-1-1V0.08c0.1299992,0.05,0.2399998,0.12,0.3400002,0.22    l8.3699989,8.5199995C27.8999996,9.0100002,28,9.2600002,28,9.5200005z" fill="#B0B0B0"/></g></g></svg>
