<?xml version="1.0" ?><!DOCTYPE svg  PUBLIC '-//W3C//DTD SVG 1.1//EN'
  'http://www.w3.org/Graphics/SVG/1.1/DTD/svg11.dtd'>
<svg enable-background="new 0 0 83 83" id="Layer_1" version="1.1" viewBox="0 0 83 83" xml:space="preserve" xmlns="http://www.w3.org/2000/svg" xmlns:xlink="http://www.w3.org/1999/xlink"><pattern height="82" id="New_Pattern_Swatch_1" overflow="visible" patternUnits="userSpaceOnUse" viewBox="0 -82 82 82" width="82" x="-93" y="-93"><g><polygon fill="none" points="0,-82 82,-82 82,0 0,0   "/><polygon fill="#747474" points="82,0 0,0 0,-82 82,-82   "/></g></pattern><g><pattern id="SVGID_1_" patternTransform="matrix(1 0 0 1 -27.9861 55.4165)" xlink:href="#New_Pattern_Swatch_1"/><polyline fill="url(#SVGID_1_)" points="0.5,6.2 4.7,3.8 13,7.5 7.2,70.3 0.5,70.3  "/><polyline fill="#505251" points="0.5,70.3 11.3,60.6 82.5,61.1 82.5,70.3  "/><pattern id="SVGID_2_" patternTransform="matrix(1 0 0 1 -27.9861 55.4165)" xlink:href="#New_Pattern_Swatch_1"/><polyline fill="url(#SVGID_2_)" points="82.5,70.3 78,66.4 77.5,65.1 76.4,8 78.2,3.8 82.5,6.2  "/><path d="M78.2,66.6c-11.9-4.3-24.9-4.3-36.8,0c0-20.9,0-41.9,0-62.8c11.9-4.3,24.9-4.3,36.8,0   C78.2,24.7,78.2,45.6,78.2,66.6z" fill="#EFF4F5"/><g><path d="M73.7,11.1c-9.1-2.4-18.6-2.4-27.7,0c0-0.6,0-1.2,0-1.8c9.1-2.4,18.6-2.4,27.7,0    C73.7,9.9,73.7,10.5,73.7,11.1z" fill="#5993CE"/><path d="M73.7,20.5c-9.1-2.4-18.6-2.4-27.7,0c0-0.6,0-1.2,0-1.8c9.1-2.4,18.6-2.4,27.7,0    C73.7,19.3,73.7,19.9,73.7,20.5z" fill="#5993CE"/><path d="M73.7,29.9c-9.1-2.4-18.6-2.4-27.7,0c0-0.6,0-1.2,0-1.8c9.1-2.4,18.6-2.4,27.7,0    C73.7,28.7,73.7,29.3,73.7,29.9z" fill="#5993CE"/><path d="M73.7,39.3c-9.1-2.4-18.6-2.4-27.7,0c0-0.6,0-1.2,0-1.8c9.1-2.4,18.6-2.4,27.7,0    C73.7,38.1,73.7,38.7,73.7,39.3z" fill="#5993CE"/><path d="M73.7,48.8c-9.1-2.4-18.6-2.4-27.7,0c0-0.6,0-1.2,0-1.8c9.1-2.4,18.6-2.4,27.7,0    C73.7,47.6,73.7,48.2,73.7,48.8z" fill="#5993CE"/><path d="M73.7,58.2c-9.1-2.4-18.6-2.4-27.7,0c0-0.6,0-1.2,0-1.8c9.1-2.4,18.6-2.4,27.7,0    C73.7,57,73.7,57.6,73.7,58.2z" fill="#5993CE"/></g><path d="M41.5,66.6c-11.9-4.3-24.9-4.3-36.8,0c0-20.9,0-41.9,0-62.8c11.9-4.3,24.9-4.3,36.8,0   C41.5,24.7,41.5,45.6,41.5,66.6z" fill="#DFE1E0"/><g><path d="M36.9,11.1c-9.1-2.4-18.6-2.4-27.7,0c0-0.6,0-1.2,0-1.8c9.1-2.4,18.6-2.4,27.7,0    C36.9,9.9,36.9,10.5,36.9,11.1z" fill="#5993CE"/><path d="M36.9,20.5c-9.1-2.4-18.6-2.4-27.7,0c0-0.6,0-1.2,0-1.8c9.1-2.4,18.6-2.4,27.7,0    C36.9,19.3,36.9,19.9,36.9,20.5z" fill="#5993CE"/><path d="M36.9,29.9c-9.1-2.4-18.6-2.4-27.7,0c0-0.6,0-1.2,0-1.8c9.1-2.4,18.6-2.4,27.7,0    C36.9,28.7,36.9,29.3,36.9,29.9z" fill="#5993CE"/><path d="M36.9,39.3c-9.1-2.4-18.6-2.4-27.7,0c0-0.6,0-1.2,0-1.8c9.1-2.4,18.6-2.4,27.7,0    C36.9,38.1,36.9,38.7,36.9,39.3z" fill="#5993CE"/><path d="M36.9,48.8c-9.1-2.4-18.6-2.4-27.7,0c0-0.6,0-1.2,0-1.8c9.1-2.4,18.6-2.4,27.7,0    C36.9,47.6,36.9,48.2,36.9,48.8z" fill="#5993CE"/><path d="M36.9,58.2c-9.1-2.4-18.6-2.4-27.7,0c0-0.6,0-1.2,0-1.8c9.1-2.4,18.6-2.4,27.7,0    C36.9,57,36.9,57.6,36.9,58.2z" fill="#5993CE"/></g><path d="M77.5,33.5" fill="#4484C4"/><circle cx="47.3" cy="41.7" fill="#FFFFFF" opacity="0.24" r="14.6"/><rect fill="#747474" height="30" transform="matrix(0.834 -0.5517 0.5517 0.834 -26.8655 47.1052)" width="6.5" x="61.6" y="53.2"/><path d="M73.7,81.6L73.7,81.6c-2.4,1.6-5.6,0.9-7.1-1.5L56.6,65l8.6-5.7l10,15.1C76.7,76.8,76.1,80,73.7,81.6z" fill="#5993CE"/><path d="M63.2,31.2c-5.8-8.8-17.6-11.2-26.4-5.4c-8.8,5.8-11.2,17.6-5.4,26.4c5.8,8.8,17.6,11.2,26.4,5.4   C66.6,51.8,69,40,63.2,31.2z M56.3,52.7c-6.1,4.9-15,4-19.9-2c-4.9-6.1-4-15,2-19.9c6.1-4.9,15-4,19.9,2   C63.2,38.8,62.3,47.7,56.3,52.7z" fill="#43B763"/></g></svg>
