<?xml version="1.0" ?><!DOCTYPE svg  PUBLIC '-//W3C//DTD SVG 1.0//EN'
  'http://www.w3.org/TR/2001/REC-SVG-20010904/DTD/svg10.dtd'>
<svg enable-background="new 0 0 32 32" height="32px" id="Layer_1" version="1.0" viewBox="0 0 32 32" width="32px" xml:space="preserve" xmlns="http://www.w3.org/2000/svg" xmlns:xlink="http://www.w3.org/1999/xlink"><g><circle cx="16" cy="16.023" fill="#FFFFFF" r="16"/><g><path d="M31.091,10.746c-0.249-0.257-0.365-0.211-0.53-0.275c-0.27-0.104-0.572-0.083-0.824,0.061    c-0.635,0.359-0.617,0.404-0.838,0.395c-0.102-0.006-0.557,0.297-0.72-0.051c-0.031-0.065-0.191-0.36-0.413,0.047    c-0.062,0.109-0.389-0.055-0.498-0.115c-0.319-0.18-0.713-0.783-0.811-0.783h-0.001c-0.109,0-0.425,0.129-0.192,0.473    c0.777,1.162,0.915,1.213,1.135,1.328c0.104-0.078,0.182-0.082,0.316-0.102C27.799,11.712,28,11.67,28,11.594v0.002    c0-0.087,0.032-0.387,0.129-0.406c0.094-0.02,0.102-0.166,0.174-0.166c0.002,0,0.004,0,0.004,0c0.134,1,0.309,0.248,0.451,0.316    c0.363,0.172,0.225,0.395,0.152,0.805c0,0-0.001-0.121-0.002-0.121c-0.002,0-0.002,0-0.002,0c-0.034,0-0.066,0.264-0.066,0.298    c0,0.13,0.083,0.374,0.057,0.507c0,0-0.005,0.07-0.008,0.072c-0.045,0.022-0.084,0.081-0.116,0.117    c-0.104,0.109-0.11,0.265-0.202,0.391c-0.084,0.117,0.006,0.389-0.197,0.389c-0.077,0.002-0.336,0.154-0.377,0.326    c-0.047,0.202-0.158,0.385-0.316,0.518c-0.117,0.1-0.277,0.229-0.495,0.4c-0.104,0.08-0.526,0.536-0.89,0.621    c-0.051,0.012-0.103-0.008-0.133-0.049c-0.003-0.002-0.004-0.005-0.005-0.008c-0.239-0.371-0.288-0.816-0.478-1.207    c-0.222-0.463-0.823-0.586-0.99-1.1c-0.141-0.434-0.199-0.615-0.397-0.727c-0.139-0.078-0.253-0.188-0.339-0.321    c-0.139-0.217-0.349-0.526-0.521-0.694c-0.08-0.076-0.131-0.174-0.148-0.281c-0.01-0.048-0.08-0.045-0.084,0.004    c-0.006,0.115-0.002,0.17-0.007,0.209C23.081,11.357,23,11.153,23,11.031v0.003c0,0.05-0.167,0.104-0.139,0.146    c0.268,0.381,1.488,2.263,1.521,2.441c0.219,1.184,1.094,1.467,1.561,1.904c0.089,0.082,0.126,0.188,0.148,0.302    c0.021,0.109,0.064,0.203,0.145,0.278c0.088,0.08,0.168,0.07,0.657,0.008c0.081-0.01,0.13-0.067,0.188-0.119    c0.048-0.045,0.443-0.186,0.495-0.218c0.107-0.069-0.027-0.028,0.219-0.146c0.098-0.047,0.211-0.337,0.191-0.008    c-0.006,0.085,0.043,0.162,0.033,0.246c-0.051,0.5-0.093,0.583-0.122,0.68c-0.038,0.128-0.088,0.251-0.12,0.381    c-0.148,0.611-0.386,1.265-0.799,1.747c-0.009,0.011-0.018,0.021-0.027,0.029c-0.227,0.21-0.643,0.601-0.98,1.263    c-0.213,0.418-0.516,0.779-0.736,1.19c-0.075,0.14-0.094,0.175-0.027,0.361c0.047,0.134,0.188,0.752,0.211,1.544    c0.022,0.864-0.116,1.006-0.393,1.207c-0.443,0.32-0.746,0.539-0.953,0.692c-0.244,0.18-0.389,0.399-0.393,0.702    c-0.002,0.111-0.027,0.357-0.104,0.357h0.002c0.014,0-0.571,0.388-0.775,0.627c0,0,0,0.043,0.002,0.049    c0.137,0.429-1.594,1.685-1.953,1.682c-0.26-0.001-0.898,0.108-1.203,0.238c-0.205,0.088-0.76-0.096-0.801-0.215    c-0.006-0.018-0.008-0.049,0.007-0.06c0.136-0.112-0.321-0.773-0.432-0.849c-0.069-0.049-0.202-0.356-0.257-0.434    c-0.168-0.236,0.119-0.569-0.066-0.804c-0.01-0.013-0.02-0.026-0.029-0.038l-0.539-0.753c-0.084-0.117-0.322-0.255-0.322-0.399    v-0.001c-0.003-0.157,0.279-0.915,0.301-0.947c0.024-0.037,0.049-0.077,0.07-0.116c0.011-0.023,0.031-0.039,0.073-0.061    c0.138-0.07,0.334-0.244,0.11-0.609c-0.015-0.021-0.015,0.073-0.085-0.435c-0.047-0.333-0.485-1.089-0.56-1.168    c0,0-0.51-0.243-0.742-0.722c0.014-0.027,0.029-0.051,0.053-0.069c0.216-0.173,0.336-0.388,0.4-0.853    c0.002-0.023,0.17-0.047,0.17-0.069v-0.003l-0.152-0.011l-0.079,0.019H16.73c0.02,0,0.023,0.011-0.102-0.179    c-0.021-0.033-0.08,0.179-0.119,0.179c-0.004,0-0.004,0-0.007,0c-0.067,0-0.503-0.538-0.503-0.606v-0.001v-0.003    c0-0.042-0.03-0.046-0.134-0.017c-0.229,0.066-0.625,0.167-0.679-0.148c-0.075-0.425-0.318-0.516-0.461-0.507    c-0.606,0.042-1.096,0.563-1.721,0.521c-0.028-0.002-0.051-0.015-0.078-0.025c-0.539-0.203-1.116-0.207-1.665-0.313    c-0.186-0.034-0.451-0.126-0.587-0.259l-0.768-0.756c-0.05-0.049-0.095-0.104-0.132-0.162c-0.244-0.375-0.335-1.201-0.399-1.348    c-0.01-0.021-0.02-0.043-0.031-0.064l-0.066-0.125l-0.002-0.004l0,0c-0.18-0.234-0.234-0.541-0.15-0.824l0.305-1.01    c0.004-0.015,0.009-0.031,0.013-0.046c0.008-0.032,0.014-0.064,0.019-0.098c0.072-0.501-0.023-0.685-0.071-0.774    c-0.087-0.168,0.002-0.168,0.436-0.773C10.617,11.578,11,11.305,11,11.241v-0.218h-0.177c0.344,0,0.994-0.161,0.981-0.389    c-0.004-0.073-0.012-0.115,0.117-0.318c0.049-0.078,0.112-0.094,0.184-0.152l0.71-0.549c0.131-0.105,0.315-0.102,0.458-0.008    c0.095-0.035,0.2-0.023,0.293,0.018c0.121,0.053,0.199,0.02,0.238,0.002c0.43-0.207,0.862-0.268,3.042-0.406    C16.92,9.216,17,9.248,17,9.307v0.002c0,0.166,0.07,0.146,0.217,0.391c0.055,0.094,0.019,0.163-0.155,0.34    c-0.065,0.066-0.046,0.173-0.024,0.177c0.061,0.003,0.205,0.04,0.322,0.101c0.154,0.081,0.402,0.16,0.604,0.219    c0.185,0.054,0.351,0.161,0.474,0.309c0.08,0.097,1.158,0.74,1.116-0.137c-0.004-0.061,0.057-0.167,0.157-0.248    c0.351-0.286,0.607,0.297,0.703,0.318c0.156,0.035,0.176,0.246,0.279,0.246h0.002c0,0,0.001,0,0.003,0    c0.095,0,0.14-0.102,0.447-0.122c0.532-0.036,1.071-0.059,1.602-0.151c0.059-0.012,0.142-0.084,0.188-0.123    c0.588-0.484-0.008-1.107,0.084-1.643l-0.002-0.018c-0.001-0.002-0.004-0.009-0.004-0.009c-0.182,0.015-0.354,0.083-0.492,0.202    c-0.051,0.043-0.111,0.071-0.194,0.08c-0.147,0.015-0.263-0.16-0.389-0.209c-0.065-0.023-0.138-0.008-0.161-0.008c0,0,0,0-0.002,0    c-0.049,0-0.609,0.111-0.777-0.17c-0.05-0.082-0.121-0.109-0.21-0.144c0.146-0.155-0.093-0.343-0.121-0.462    c-0.013-0.061,0.019-0.225,0.076-0.225h0.003c0.033,0,0.048-0.016,0.072-0.025L20.811,8.01c0.008-0.001,0.022,0.014,0.044,0.014    h0.01c0,0,0.004-0.019,0.007-0.044c0.041-0.028,0.063-0.057,0.048-0.045c-0.014,0.01-0.03,0.019-0.045,0.028    c0.002-0.018,0.005-0.034,0.007-0.055c-0.001-0.002-0.003,0-0.004-0.002l-0.058,0.09c-0.032,0.016-0.065,0.027-0.1,0.027h-0.001    c-0.039,0-0.076,0.062-0.11,0.045c-0.081-0.046-0.172-0.036-0.266-0.036c-0.112,0-0.226,0.049-0.248,0.16    c-0.004,0.021-0.017,0.048-0.032,0.059s-0.035,0.017-0.051,0.011c-0.027-0.014-0.057-0.008-0.078,0.007    c-0.021,0.016-0.035,0.234-0.031,0.27c0.008,0.097,0.268,0.485,0.057,0.485h-0.001c0,0-0.091-0.14-0.099-0.136    c-0.086,0.044-0.199,0.04-0.275,0.036c-0.023-0.002-0.049,0.1-0.072,0.1H19.51c-0.016,0-0.024,0-0.027,0H19.48    c-0.008,0-0.088-0.271-0.103-0.294c-0.031-0.054-0.032-0.156-0.052-0.174c-0.014-0.015-0.136-0.079-0.155-0.093    C19.13,8.434,19,8.363,19,8.312V8.301c0-0.039,0.093-0.101,0.085-0.16c-0.017-0.136-0.034-0.262-0.14-0.346    c-0.025-0.022-0.037-0.036-0.07-0.035c-0.023,0.002-0.032,0.172-0.053,0.159c-0.088-0.06-0.135,0.104-0.135,0.104h-0.001    L17.99,7.338c-0.041-0.03-0.088-0.131-0.138-0.129c-0.042,0.002-0.063-0.08-0.085-0.113c-0.045-0.068-0.129-0.123-0.209-0.098    c-0.002,0-0.006-0.01-0.008-0.008c-0.049,0.018-0.074,0.071-0.047,0.119c0.015,0.027,0.03,0.05,0.048,0.074l0.405,0.589    c0.066,0.097,0.18,0.155,0.297,0.153c0.049,0,0.09,0.035,0.095,0.084c0.003,0.023,0.015,0.045,0.037,0.057    c0.194,0.111,0.444,0.127,0.577,0.338c0.003,0.002,0.003,0.005,0.003,0.005c0.001,0.003,0.001,0.003,0.001,0.003v0.002    c0,0.016-0.011,0.066-0.019,0.08c-0.015,0.027-0.066,0.039-0.081,0.024c-0.01-0.009-0.01-0.032-0.009-0.057    c0.001-0.008-0.001-0.018-0.005-0.028c-0.021-0.057,0.167-0.066,0.112-0.09C18.892,8.312,19,8.346,19,8.418V8.42    c0,0-0.23,0.006-0.232,0.007c-0.031,0.084-0.094,0.108-0.064,0.122c0.046,0.022,0.056,0.056,0.038,0.152    c-0.007,0.042-0.083,0.027-0.107,0.045c0,0,0.004-0.014-0.079,0.147c-0.026,0.056-0.009,0.068-0.081,0.104    c-0.059,0.029-0.091-0.009-0.099-0.021c-0.025-0.045,0.009-0.084,0.007-0.127c0-0.02-0.193-0.036-0.136-0.059    C18.325,8.757,18,8.627,18,8.553V8.55c0-0.169,0.156-0.032,0.045-0.138c-0.07-0.064-0.157-0.174-0.192-0.219    c-0.239-0.296-0.584-0.437-0.788-0.768c-0.042-0.066-0.078-0.119-0.15-0.152c-0.047-0.021-0.092-0.037-0.154-0.034    c-0.059,0.003-0.335,0.164-0.562,0.294c-0.214,0.122-0.365-0.167-0.573-0.084c-0.226,0.09-0.09,0.384-0.28,0.492    c-0.218,0.125-0.477,0.166-0.668,0.34c-0.007,0.007-0.013,0.018-0.019,0.029c-0.058,0.135-0.16,0.193-0.166,0.227    c-0.007,0.028-0.008,0.039,0.004,0.078c0.023,0.082,0,0.17-0.064,0.227c-0.043,0.037-0.008,0.152-0.046,0.174    c-0.071,0.036-0.147-0.004-0.22,0.017c-0.108,0.031-0.113,0.172-0.221,0.204c-0.139,0.043-0.273-0.046-0.411-0.015    c-0.313,0.067-0.313,0.067-0.325,0.096c-0.01,0.026-0.036,0.068-0.08,0.068c-0.161-0.004-0.102-0.206-0.18-0.294    c-0.082-0.096-0.104-0.086-0.143-0.069c-0.051,0.022-0.135,0.059-0.161,0.043C12.611,9.045,12.584,9.012,12.544,9    c-0.028-0.008-0.052-0.026-0.065-0.052c-0.023-0.046,0.034-0.231,0.049-0.284c0.007-0.033,0.005-0.066-0.008-0.097    c-0.013-0.036-0.047-0.06-0.086-0.062c-0.007,0-0.016-0.002-0.021-0.01c-0.046-0.05,0.142-0.238,0.193-0.334    c0.009-0.016,0.017-0.037,0.022-0.053c0.16-0.408,0.158-0.546,0.126-0.682c-0.014-0.061,0.03-0.119,0.093-0.121    c0.033-0.002,0.068-0.004,0.098-0.006c0.066-0.077,0.177-0.099,0.267-0.053C13.335,7.31,13.58,7.4,14,7.42    c0.102,0.004,0.203,0.025,0.297,0.062c0.09,0.034,0.166-0.044,0.199-0.085c0.077-0.1,0.064-0.225,0.081-0.342    c0.003-0.021,0.024-0.034,0.034-0.054c-0.125-0.061-0.096-0.405-0.2-0.472c-0.097-0.062-0.093-0.193-0.331-0.22    c-0.036-0.003,0.046-0.215,0.186-0.259c0.008-0.004,0.018-0.025,0.023-0.021c0.087,0.043,0.183,0.052,0.278,0.048    c0.036-0.002,0.231-0.025,0.253-0.055c0.021-0.028,0.169-0.069,0.177-0.104c0.018,0.002,0.04,0.002,0.081-0.004    c0.033-0.006,0.021-0.03,0.029-0.064c0.004-0.016-0.007-0.029,0.008-0.038c0.155-0.089,0.212-0.128,0.244-0.163    c0.072-0.086,0.154-0.156,0.254-0.213c0.141-0.078,0.207-0.129,0.342-0.25c0.057-0.053,0.125-0.09,0.201-0.107    c0.024-0.006,0.039-0.027,0.034-0.051c0,0,0-0.01,0.005-0.014c0.023-0.033,0.062-0.016,0.104-0.02    c0.099-0.01,0.157,0.029,0.198,0.029H16.5c0.027,0,0.068-0.09,0.113-0.089c0.102,0.003,0.236,0.058,0.215-0.225    c-0.032-0.254,0.053-0.687,0.229-0.687h0.002c0.08,0,0.016,0.088,0.03,0.174C17.097,4.249,17,4.273,17,4.312v0.001    c0,0.376,0,0.364,0,0.46v0.003c0,0.016,0.109,0.029,0.122,0.038c0.015,0.009,0.081,0.011,0.097,0.005    c0.014-0.005,0.372-0.027,0.386-0.02c0.063,0.041,0.028,0.225,0.079,0.225h0.008c0.074,0,0.189-0.033,0.281-0.08    c0.19-0.102,0.413-0.195,0.627-0.155c0.105,0.019,0.365-0.262,0.316-0.403c-0.028-0.086-0.033-0.192-0.014-0.281    c0.012-0.055-0.009-0.093,0.054-0.134c0.032-0.021,0.073-0.028,0.106-0.013c0.045,0.02,0.098,0.02,0.144,0    c0.062-0.026,0.103-0.085,0.108-0.153l0,0c0.001-0.014-0.006-0.027-0.017-0.035c-0.058-0.036-0.091-0.103-0.082-0.172    c0.011-0.075,0.068-0.138,0.144-0.149c0.221-0.041,0.262,0.083,0.472-0.104c0.013-0.012,0.018-0.029,0.014-0.046    c-0.005-0.017-0.018-0.028-0.034-0.032c-0.174-0.039-0.355-0.199-0.523-0.141l-0.201-0.102c-0.002,0-0.086,0-0.086,0v0.174    c0,0.021-0.034,0.119-0.074,0.115c-0.142-0.012-0.211-0.102-0.266-0.25c-0.062-0.172-0.031-0.344,0.069-0.497    c0.05-0.075,0.079-0.163,0.136-0.233c0.021-0.029,0.033-0.062,0.025-0.098c-0.023-0.104-0.199-0.146-0.297-0.123    c-0.197,0.044-0.064,0.281-0.143,0.404c-0.046,0.07-0.236,0.122-0.252,0.219c-0.043,0.248-0.062,0.379-0.047,0.465    c0.036,0.184,0.018,0.373-0.053,0.548c-0.002,0.001-0.002,0.002-0.002,0.002c-0.057,0.149,0.06,0.304-0.018,0.452    c-0.09,0.171-0.299,0.035-0.348,0.241c-0.02,0.087-0.191-0.04-0.249-0.099c-0.007-0.17-0.072-0.248-0.12-0.381    c-0.038-0.109-0.126-0.191-0.234-0.225c-0.293-0.086-0.352,0.199-0.609,0.119c-0.208-0.063-0.354-0.251-0.365-0.468    c-0.01-0.217,0.115-0.418,0.316-0.503l0,0c0.682-0.287,0.809-0.576,0.854-0.738c0.012-0.037,0.039-0.125,0.076-0.125    c0,0,0,0,0.002,0c0.006,0,0.025-0.021,0.053-0.047c0.07-0.064,0.117,0.084,0.18,0.013c0.068-0.079,0.14,0.034,0.14,0.034    s0,0,0.001,0c0,0,0.354-0.557,0.727-0.675c0.172-0.054,0.298-0.156,0.34-0.147c0.043,0.008,0.107-0.033,0.207-0.014    c-0.006,0.034,0.004,0.042,0.023,0.069c0.048,0.063,0.203,0.034,0.391,0.122c0.215,0.1,0.475,0.062,0.707,0.11    c0.096,0.021,0.16,0.106,0.148,0.202c-0.012,0.097-0.094,0.166-0.191,0.164C20.061,1.854,20,1.895,19.977,1.957    c-0.023,0.064-0.004,0.135,0.051,0.176c0.082,0.066,0.178,0.118,0.277,0.154c0.117,0.041,0.309,0.072,0.225-0.021    c-0.029-0.032-0.07-0.051-0.115-0.052c-0.162-0.001-0.11-0.149-0.023-0.108c0.096,0.043,0.365,0.072,0.178-0.107    c-0.022-0.023-0.025-0.059-0.005-0.083c0.03-0.04,0.056-0.084,0.073-0.13c0.04-0.099,0.032-0.067,0.158-0.027    c0.021,0.006,0.044,0.002,0.062-0.011c0.036-0.024,0.083-0.045,0.049-0.07c-0.029-0.022,0.03-0.075,0.054-0.067    c0.035,0.012,0.077,0.002,0.101-0.029c0.02-0.023,0.025-0.055,0.017-0.083c-0.021-0.072,0.037-0.269,0.143-0.308    c0.025-0.009,0.051-0.01,0.078-0.002l0,0c0.021-0.02,0.046-0.035,0.074-0.047c0.047-0.017,0.126-0.051,0.182-0.099    c0.004-0.003,0.01-0.001,0.014-0.003C19.83,0.394,17.961,0.023,16,0.023c-0.055,0-0.107,0.008-0.162,0.008    c-0.016,0.013-0.033,0.022-0.049,0.035c-1.045,0.865-2.697,1.225-2.66,1.129c-0.158,0.002-0.094-0.041-0.094-0.041    C12.984,1.167,13,1.196,13,1.166V1.164c0-0.02-0.113-0.177-0.129-0.188c-0.057-0.037-0.27,0.047-0.532,0.047    c-0.001,0-0.001,0-0.001,0c-0.006,0-0.012,0.142-0.017,0.146c-0.11,0.058-0.233,0.141-0.317,0.142    c-0.061,0-0.119,0.047-0.175,0.069c-0.009,0.003-0.019,0.017-0.023,0.01c-0.019-0.032,0.077-0.058,0.111-0.071    c0.031-0.012,0.017-0.043-0.114,0.033c-0.029,0.016-0.062,0.021-0.094,0.014c-0.131-0.033-0.289,0.072-0.393,0.159    c-0.016,0.014-0.037,0.022-0.062,0.011c-0.035-0.015-0.068-0.009-0.058,0.047c0.013,0.061-0.333,0.213-0.339,0.188    c-0.006-0.02-0.027-0.029-0.046-0.025c-0.046,0.01-0.101,0.047-0.131,0.104c-0.056,0.104-0.206,0.123-0.278,0.184    c-0.076,0.062-0.189,0.126-0.189,0.126C10.172,2.204,10.145,2.23,10.1,2.232c-0.042,0.002-0.068-0.073-0.049-0.102    c0.012-0.019,0.094-0.1,0.074-0.104c-0.008-0.002-0.015-0.007-0.019-0.016c-0.015-0.025,0.05-0.055,0.033-0.087    c-0.011-0.022-0.136-0.03-0.146-0.041c-0.008-0.009-0.1-0.021-0.095-0.03C9.978,1.694,10,1.686,10,1.58V1.578    c0-0.016,0.081-0.037,0.091-0.053c0.061-0.087,0.302-0.344,0.529-0.375c0.061-0.01,0.044-0.021,0.044-0.021    c-0.057-0.024-0.118-0.04-0.077-0.085c0.03-0.033,0.077-0.07,0.118-0.107C9.773,1.264,8.657,1.67,7.812,2.156    C7.545,2.531,8,3.033,7,3.148V3.15c0,0.103-0.088,0.014-0.365,0.117C6.581,3.289,6.645,3.272,6.592,3.26    C6.549,3.248,6.57,3.217,6.553,3.176C6.547,3.159,6.544,3.15,6.539,3.141C6.547,3.136,6.555,3.13,6.562,3.125    C6.483,3.014,6.145,3.396,6.097,3.408C6.041,3.42,5.749,3.725,5.722,3.77C5.717,3.777,5.713,3.785,5.709,3.793    C5.707,3.794,5.696,3.803,5.698,3.8c0.007-0.01,0.014-0.021,0.021-0.03c-2.691,2.258-4.626,5.385-5.375,8.949    c0.1,0.031,0.186,0.101,0.207,0.208c0.006,0.04,0.029,0.067,0.062,0.08s0.067,0.009,0.101-0.014    c0.021-0.016,0.14,0.09,0.146,0.216c0.004,0.068,0.031,0.146,0.045,0.215c0.016,0.08-0.005,0.165-0.059,0.229    c-0.008,0.011-0.011,0.024-0.008,0.036c0.066,0.261,0.369,1.372,0.432,1.429c0.035-0.006,0.065,0.006,0.084,0.028    c0.611,0.688,1.301,1.812,1.281,2.163c-0.138,0.258-0.123,0.244-0.01,0.385c0.213,0.26,0.209,0.273,0.13,0.541    c0.046-0.075,0.128-0.121,0.22-0.121c0.089,0,0.172,0.047,0.219,0.123c0.036,0.056,0.072,0.111,0.119,0.155    c0.124,0.112,0.19,0.278,0.176,0.446c0,0,0.192,0.002,0.461,0.204c0.338,0.255,1.539,1.628,1.585,2.004    c0.021,0.168-0.048,0.332-0.134,0.478c-0.1,0.168-0.418,0.514-0.475,0.701c-0.025,0.094-0.174,0.137-0.173,0.191    c0.001,0.076,0.023,0.234,0.133,0.548c0.032,0.093,0.108,0.778,0.071,1.055c-0.021,0.163-0.021,0.19,0.019,0.368    c0.013,0.057-0.128-0.016-0.223-0.084c-0.121-0.086-0.222-0.279-0.233-0.279H4.519c-0.167,1-0.765,0.553-0.632,0.843    c0.039,0.086-0.525,0.374-0.525,0.374l0.066,0.383L3.353,25.77C6.279,29.551,10.85,32.023,16,32.023c8.836,0,16-7.164,16-16    C32,14.172,31.67,12.4,31.091,10.746z M14.273,4.02h0.002c0.008-0.002,0.014-0.002,0.023,0.016    c0.002,0.002,0.006,0.005,0.01,0.004c0.002,0,0.005-0.002,0.006-0.004c0.009-0.021,0.013-0.045,0.021-0.066    c0.002-0.005,0.003-0.012,0-0.016V3.951c-0.018,0.008-0.037,0.006-0.049-0.008c-0.015-0.014-0.017-0.035-0.006-0.051    c0.008-0.014,0.019-0.024,0.032-0.033c0.003,0,0.004-0.002,0.004-0.002c0.011-0.004,0.019-0.004,0.026,0    c0.015,0.006,0.029,0.004,0.042-0.006c0.003-0.001,0.005-0.003,0.008-0.005c0.042-0.034,0.08-0.073,0.113-0.12    c0.016-0.021,0.032-0.038,0.046-0.043c0.02-0.008,0.039-0.011,0.061-0.011c0.054,0,0.107,0.007,0.159,0.021    c0.021,0.006,0.071,0.029,0.013,0.065c-0.027,0.017-0.059,0.023-0.082,0.046c-0.02,0.018-0.02,0.041-0.033,0.061    c-0.002,0.004-0.002,0.008,0,0.01c0.002,0.004,0.006,0.006,0.01,0.006c0.049-0.004,0.307-0.014,0.249,0.066    c-0.025,0.035-0.045,0.072-0.061,0.112c-0.035,0.096-0.04,0.202-0.011,0.302c0.009,0.027,0.011,0.057,0.009,0.081    c-0.003,0.027-0.011,0.056-0.008,0.083s0.032,0.048,0.025,0.078c-0.001,0.003-0.001,0.006,0,0.008    c0.001,0.001,0.001,0.001,0.003,0.001c0.004-0.001,0.008-0.001,0.012-0.001c0.024,0,0.049,0,0.073-0.002    c0.009-0.001,0.011,0.002,0.015,0.006c0,0,0.059,0.124,0.047,0.139v0.002c-0.012,0.018-0.011,0.041,0.002,0.057    c0.018,0.018,0.033,0.037,0.035,0.065c0.002,0.013,0.002,0.013-0.057,0.059c-0.007,0.005-0.009,0.012-0.007,0.019    c0.05,0.027,0.05,0.027,0.079,0.012c0.039-0.021,0.186,0.053,0.193,0.057v0.002c0.08,0.042,0.068,0.104,0.064,0.117    c-0.011,0.038-0.021,0.059-0.038,0.068c-0.034,0.018-0.067,0.04-0.099,0.062c-0.005,0.004-0.014,0.003-0.027-0.007    c-0.003-0.002-0.006-0.004-0.008-0.006c-0.003-0.003-0.008-0.004-0.013-0.002c-0.004,0.001-0.007,0.005-0.005,0.008    c0.005,0.053,0.035,0.1,0.082,0.127c0,0,0,0.001,0.002,0.001v0.003c0.003,0.054-0.127,0.078-0.129,0.078    c-0.041-0.004-0.082,0.022-0.126,0.016c-0.037-0.006-0.065-0.037-0.103-0.037C14.79,5.451,14.79,5.451,14.773,5.44    c-0.006-0.003-0.068-0.019-0.09-0.021c-0.06-0.003-0.106,0.039-0.162,0.051c-0.05,0.01-0.086-0.037-0.135-0.033    c-0.068,0.006-0.092,0.072-0.137,0.105c-0.006,0.004-0.01,0.005-0.016,0.004c-0.001-0.002-0.001-0.002-0.002-0.002    c-0.035-0.064-0.098-0.04-0.133-0.019c-0.01,0.007-0.02,0.013-0.027,0.018c-0.013,0.007-0.028,0.005-0.037-0.007    c-0.009-0.011-0.009-0.026,0.002-0.037c0.019-0.02,0.039-0.04,0.059-0.061c0.059-0.059,0.135-0.094,0.215-0.103    c0.025-0.003,0.053-0.002,0.08,0c0.049,0.007,0.083-0.019,0.119-0.044c0.008-0.007,0.012-0.018,0.008-0.027    S14.506,5.25,14.496,5.25c-0.015,0-0.028,0.004-0.041,0.015c-0.004,0.003-0.008,0.005-0.01,0.007    c-0.017,0.006-0.034,0.006-0.049,0.001c-0.004-0.001-0.008-0.003-0.011-0.007c-0.032-0.033-0.073-0.059-0.12-0.069    c-0.047-0.013-0.093,0.028-0.143,0.005c-0.031-0.014-0.025-0.061-0.02-0.069c0.009-0.009,0.023-0.011,0.047-0.015    c0.037-0.004,0.149-0.045,0.166-0.063c0.016-0.017,0.049-0.13,0.004-0.126c-0.023,0.002-0.041,0.021-0.064,0.025    c-0.005,0.002-0.01,0-0.014-0.004c-0.004-0.003-0.006-0.008-0.005-0.013c0,0,0-0.005,0.001-0.007c0,0,0,0,0.002,0    c0.014-0.027,0.063-0.012,0.064-0.051c0-0.01-0.008-0.019-0.014-0.026c-0.008-0.008-0.008-0.021-0.002-0.028    c0.008-0.011,0.019-0.015,0.029-0.011c0.062,0.021,0.133,0.005,0.18-0.042c0.046-0.047,0.062-0.115,0.043-0.179    c-0.002-0.001-0.002-0.003-0.002-0.003V4.585c-0.006-0.026-0.023-0.048-0.046-0.058c-0.017-0.009-0.03-0.021-0.038-0.037    c0,0-0.001-0.002-0.003-0.002c-0.001-0.001-0.003-0.001-0.005,0c-0.062,0.037-0.062,0.037-0.072-0.009    c-0.002-0.002-0.002-0.003-0.005-0.005c-0.001-0.001-0.001-0.001-0.001-0.001c-0.016,0.005-0.034-0.003-0.041-0.018    c-0.01-0.015-0.006-0.033,0.007-0.045c0.015-0.011,0.032-0.024,0.054-0.042c0.039-0.029,0.025-0.072,0.027-0.111    c0,0-0.003-0.013-0.008-0.017c-0.006-0.004-0.012-0.006-0.018-0.003c-0.02,0.006-0.035,0.011-0.052,0.019    c-0.021,0.009-0.025,0.015-0.039,0.032c-0.015,0.018-0.026,0.031-0.035,0.041c-0.008,0.01-0.021,0.012-0.03,0.005    s-0.013-0.019-0.008-0.028c0.004-0.006,0.006-0.012,0.01-0.016l0,0c0.034-0.047,0.031-0.113-0.008-0.156    c-0.004-0.004-0.006-0.009-0.007-0.016C14.221,4.098,14.242,4.027,14.273,4.02z M13.285,5.022    c0.033-0.074,0.111-0.106,0.158-0.167c0.057-0.074,0.047-0.083,0.025-0.1c-0.025-0.025-0.018-0.045,0-0.067    c0.022-0.027,0.052-0.05,0.074-0.077c0.018-0.024,0.021-0.056,0.047-0.075c0.032-0.024,0.054-0.024,0.103-0.021    c0.038,0.003,0.13-0.164,0.245-0.194c0.109-0.028,0.285,0.184,0.236,0.258c-0.012,0.016-0.039,0.02-0.07,0.024    s-0.049,0.007-0.076,0.085c-0.01,0.03,0.025,0.071-0.015,0.092c-0.034,0.02-0.006,0.057-0.018,0.082    c-0.022,0.053-0.071,0.119-0.1,0.154c-0.028,0.037-0.114,0.01-0.21,0.037c0,0,0,0-0.002,0c-0.069,0.02-0.131,0.059-0.197,0.088    c-0.072,0.031-0.191,0.061-0.207-0.016C13.275,5.103,13.273,5.049,13.285,5.022z" fill="#469FCC"/><path d="M14.646,7.023c0.021,0,0.039-0.003,0.043,0.02c0.002,0.017-0.004-0.147-0.018-0.139    c-0.033,0.021-0.044,0.062-0.061,0.097c0.012,0.005,0.017,0.022,0.031,0.022C14.645,7.023,14.646,7.023,14.646,7.023z" fill="#469FCC"/><polygon fill="#469FCC" points="20.805,8.021 20.811,8.01 20.805,8.009   "/><polygon fill="#469FCC" points="22.684,8.023 22.682,8.022 22.676,8.023   "/><polygon fill="#469FCC" points="20.804,8.023 20.805,8.021 20.803,8.023   "/><path d="M21.355,7.967c0.07,0.008,0.142-0.031,0.213-0.031c0.023,0,0.221-0.022,0.252-0.035    C21.845,7.89,22,7.857,22,7.838V7.834c0-0.02-0.145-0.022-0.066-0.085c0.057-0.046,0.051-0.069,0.108-0.112    c0.097-0.076,0.183,0.146,0.288,0.113c0.023-0.008,0.327,0.269,0.352,0.272c0.102-0.003,0.347-0.103,0.406-0.085    c0.025,0.006,0.062-0.059,0.098-0.06c0.004-0.001,0.004-0.038,0.006-0.04c0.053-0.023,0.084-0.122,0.155-0.086    c0.124,0.062,0.474-0.002,0.388-0.291c-0.045-0.156-0.254-0.248-0.316-0.27c-0.187-0.068-0.309-0.23-0.475-0.333    c-0.072-0.044-0.158-0.006-0.232-0.036c-0.17-0.068-0.17-0.068-0.18-0.117c-0.002-0.002,0.184-0.007,0.186-0.011    C22.762,6.631,23,6.561,23,6.483V6.482c0-0.027-0.162-0.041-0.193-0.06c-0.037-0.024-0.203-0.001-0.212-0.065    c-0.005-0.049,0.058-0.105,0.104-0.133c0.036-0.021,0.029-0.049,0.035-0.067c0.012-0.027-0.035-0.065-0.051-0.063    c-0.051,0.006-0.199,0.092-0.221,0.094c-0.006,0.002-0.016-0.177-0.021-0.174l-0.33,0.01c-0.001,0-0.001,0-0.001,0    c-0.058,0-0.091,0.292-0.083,0.363c0.004,0.072-0.049,0.227,0.015,0.26C22.067,6.66,22,6.713,22,6.74v0.023    c0,0.014-0.091,0.193-0.109,0.195c-0.048,0.007-0.017-0.012-0.021-0.019c-0.001-0.003,0.02-0.005,0.02-0.005    c-0.028-0.082-0.081-0.146-0.173-0.174c-0.018-0.006-0.025-0.021-0.025-0.041c-0.002-0.048,0.082-0.047,0.09-0.105    c0.002-0.027-0.008-0.053-0.029-0.068c-0.029-0.02-0.042-0.014-0.075,0.002c-0.021,0.011-0.044,0.02-0.069,0.02    c-0.021,0-0.039-0.015-0.042-0.035c-0.003-0.018,0.005-0.036,0.021-0.045c0.007-0.004,0.01-0.012,0.007-0.017l-0.001-0.001    c-0.002-0.004-0.007-0.007-0.01-0.008c-0.056-0.014-0.104-0.021-0.141-0.027c-0.072-0.008-0.145-0.002-0.214,0.018    c-0.058,0.016-0.062,0.023-0.075,0.062c-0.035,0.098-0.049,0.139-0.061,0.155c-0.049,0.063-0.082,0.169-0.103,0.247    c-0.007,0.029-0.021,0.105-0.056,0.105c0,0-0.001,0-0.004,0c0,0-0.02,0.144-0.019,0.163c0.003,0.04,0.103,0.062,0.088,0.104    C20.986,7.326,21,7.301,21,7.336v0.002c0,0.061-0.072,0.152-0.057,0.213c0.001,0.006-0.04,0.242-0.045,0.244    c-0.003,0.001-0.01,0.057-0.018,0.113c0.074,0.099,0.172,0.072,0.286,0.121C21.231,8.059,21.293,7.959,21.355,7.967z" fill="#469FCC"/><polygon fill="#469FCC" points="2.754,18.236 2.754,18.234 2.754,18.234   "/></g><path d="M16,22.023c-6.146,0-11.749-2.312-15.994-6.11C0.005,15.95,0,15.986,0,16.023c0,8.837,7.163,16,16,16   s16-7.163,16-16c0-0.037-0.005-0.073-0.006-0.11C27.749,19.711,22.146,22.023,16,22.023z" opacity="0.15"/></g><g/><g/><g/><g/><g/><g/></svg>
