<?xml version="1.0" ?><!DOCTYPE svg  PUBLIC '-//W3C//DTD SVG 1.1//EN'
  'http://www.w3.org/Graphics/SVG/1.1/DTD/svg11.dtd'>
<svg enable-background="new 0 0 512 512" height="512px" id="Layer_1" version="1.1" viewBox="0 0 512 512" width="512px" xml:space="preserve" xmlns="http://www.w3.org/2000/svg" xmlns:xlink="http://www.w3.org/1999/xlink"><g><g><radialGradient cx="252.5342" cy="468.5898" gradientUnits="userSpaceOnUse" id="SVGID_1_" r="313.1466"><stop offset="0.0281" style="stop-color:#91C9FF"/><stop offset="0.1575" style="stop-color:#86C4FC"/><stop offset="0.3838" style="stop-color:#69B5F3"/><stop offset="0.68" style="stop-color:#3A9DE4"/><stop offset="1" style="stop-color:#0080D2"/></radialGradient><path d="M255.221,20.015c-130.18,0-236.092,105.91-236.092,236.094     c0,130.181,105.912,236.091,236.092,236.091c130.191,0,236.102-105.91,236.102-236.091     C491.322,125.925,385.412,20.015,255.221,20.015z" fill="url(#SVGID_1_)"/><g><linearGradient gradientUnits="userSpaceOnUse" id="SVGID_2_" x1="255.2271" x2="255.227" y1="928.1309" y2="-146.8875"><stop offset="0.0281" style="stop-color:#91C9FF"/><stop offset="0.169" style="stop-color:#83C2FB"/><stop offset="0.4343" style="stop-color:#5FB0EF"/><stop offset="0.7926" style="stop-color:#2593DD"/><stop offset="1" style="stop-color:#0080D2"/></linearGradient><path d="M8.137,256.108c0,136.242,110.841,247.085,247.084,247.085      c136.249,0,247.096-110.843,247.096-247.085c0-136.243-110.847-247.086-247.096-247.086      C118.978,9.022,8.137,119.865,8.137,256.108z M19.129,256.108c0-130.184,105.912-236.094,236.092-236.094      c130.191,0,236.102,105.91,236.102,236.094c0,130.181-105.91,236.091-236.102,236.091      C125.041,492.199,19.129,386.289,19.129,256.108z" fill="url(#SVGID_2_)"/></g></g><g><g><path d="M255.227,432.457c-19.238,0-34.832-15.594-34.832-34.83V251.25      c0-19.237,15.594-34.831,34.832-34.831c19.236,0,34.83,15.594,34.83,34.831v146.377      C290.057,416.863,274.463,432.457,255.227,432.457z" fill="#055DBB" opacity="0.6"/><path d="M255.227,413.058c-19.238,0-34.832-15.594-34.832-34.83V231.851c0-19.237,15.594-34.831,34.832-34.831      c19.236,0,34.83,15.594,34.83,34.831v146.377C290.057,397.464,274.463,413.058,255.227,413.058z" fill="#FFFFFF"/></g><radialGradient cx="273.1611" cy="65.1353" gradientUnits="userSpaceOnUse" id="SVGID_3_" r="52.5611"><stop offset="0.0281" style="stop-color:#91C9FF"/><stop offset="0.1575" style="stop-color:#86C4FC"/><stop offset="0.3838" style="stop-color:#69B5F3"/><stop offset="0.68" style="stop-color:#3A9DE4"/><stop offset="1" style="stop-color:#0080D2"/></radialGradient><path d="M293.402,154.208c0,21.083-17.09,38.176-38.178,38.176c-21.08,0-38.174-17.093-38.174-38.176     c0-21.081,17.094-38.172,38.174-38.172C276.313,116.036,293.402,133.127,293.402,154.208z" fill="url(#SVGID_3_)"/><path d="M293.402,139.932c0,21.084-17.09,38.175-38.178,38.175c-21.08,0-38.174-17.091-38.174-38.175     c0-21.082,17.094-38.173,38.174-38.173C276.313,101.759,293.402,118.85,293.402,139.932z" fill="#FFFFFF"/></g></g></svg>
