<?xml version="1.0" ?>
<svg id="Layer_1" style="enable-background:new 0 0 48 48;" version="1.1" viewBox="0 0 48 48" xml:space="preserve" xmlns="http://www.w3.org/2000/svg" xmlns:xlink="http://www.w3.org/1999/xlink"><g><polygon points="33.419,23.93 24.79,28.984 32.371,41.928 36.476,43 39.927,40.979 41,36.874 39.484,34.285    36.747,33.57 37.462,30.834 34.726,30.119 35.441,27.382  " style="fill:#90A4AE;"/><path d="M33.395,10.038c-3.349-5.719-10.7-7.64-16.419-4.29s-7.64,10.7-4.29,16.419   c2.027,3.462,5.523,5.52,9.233,5.872l0.64,1.093c0.558,0.953,1.783,1.273,2.737,0.715l8.629-5.054   c0.953-0.558,1.273-1.783,0.715-2.737L34,20.964C35.508,17.555,35.423,13.5,33.395,10.038z M18.492,8.336   c1.43-0.837,3.267-0.357,4.105,1.073s0.357,3.267-1.073,4.105s-3.267,0.357-4.105-1.073S17.062,9.174,18.492,8.336z" style="fill:#90A4AE;"/><rect height="17" style="fill:#607D8B;" transform="matrix(0.8629 -0.5054 0.5054 0.8629 -12.8651 21.8862)" width="2" x="32.906" y="26.155"/></g><g><polygon points="24,27 14,27 14,42 17,45 21,45 24,42 24,39 22,37 24,35 22,33 24,31  " style="fill:#FF9800;"/><path d="M31,15c0-6.627-5.373-12-12-12S7,8.373,7,15c0,4.012,1.976,7.554,5,9.733V26c0,1.105,0.895,2,2,2h10   c1.105,0,2-0.895,2-2v-1.267C29.024,22.554,31,19.012,31,15z M19,6c1.657,0,3,1.343,3,3s-1.343,3-3,3s-3-1.343-3-3S17.343,6,19,6z" style="fill:#FF9800;"/><rect height="17" style="fill:#F57C00;" width="2" x="18" y="28"/></g><path d="M29.354,5.675c-0.146-0.039-0.526-0.065-0.526-0.065s2.391,1.141,4.149,3.752  c2.091,1.279,3.247,2.796,2.985,3.841c-0.099,0.396-0.402,0.744-0.902,1.037c-1.637,0.959-4.732,1.021-7.887,0.156  c-4.573-1.251-7.539-3.986-7.136-5.598c0.059-0.238,0.223-0.541,0.536-0.822C19.125,7.672,18.13,8.559,18.03,8.66  c-0.407,2.939,3.2,6.183,8.616,7.665c1.646,0.45,3.275,0.674,4.761,0.674c1.856-0.001,3.491-0.348,4.663-1.034  c0.968-0.565,1.602-1.354,1.833-2.277C38.66,10.66,34.985,7.216,29.354,5.675z" style="fill:#455A64;"/></svg>
