<?xml version="1.0" ?>
<svg height="60" id="Science" viewBox="0 0 60 60" width="60" xmlns="http://www.w3.org/2000/svg">
  <title/>
  <path d="M37,46.5V52a7,7,0,0,1-7,7h0a7,7,0,0,1-7-7V46.5" style="fill:#ced8ee"/>
  <path d="M26,52V46.5H23V52a6.98951,6.98951,0,0,0,8.5,6.83484A6.99967,6.99967,0,0,1,26,52Z"
        style="fill:#fff;opacity:0.5"/>
  <path d="M34,46.5V52a6.99967,6.99967,0,0,1-5.5,6.83484A6.98951,6.98951,0,0,0,37,52V46.5Z"
        style="fill:#2c4b75;opacity:0.2"/>
  <path
    d="M21,39H39a0,0,0,0,1,0,0v3.6667A4.3333,4.3333,0,0,1,34.6667,47H25.3333A4.3333,4.3333,0,0,1,21,42.6667V39A0,0,0,0,1,21,39Z"
    style="fill:#ced8ee"/>
  <path d="M28.5,45.5V39H24v3.66669A4.33332,4.33332,0,0,0,28.33331,47H30A1.5,1.5,0,0,1,28.5,45.5Z"
        style="fill:#fff;opacity:0.5"/>
  <path d="M36,39v3.66669A4.33336,4.33336,0,0,1,31.66669,47h3A4.33336,4.33336,0,0,0,39,42.66669V39Z"
        style="fill:#2c4b75;opacity:0.2"/>
  <path
    d="M48,19A18,18,0,1,0,18.3517,32.703,7.783,7.783,0,0,1,21,38.6573V39H39v-.5041a7.48555,7.48555,0,0,1,2.5898-5.7435A17.9292,17.9292,0,0,0,48,19Z"
    style="fill:#fff27d"/>
  <path d="M23.97162,2.049a18.13411,18.13411,0,0,0-11.64331,13.5755A10.99463,10.99463,0,1,0,23.97162,2.049Z"
        style="fill:#fff;opacity:0.75"/>
  <path
    d="M27.94659,4.11389A17.9912,17.9912,0,0,1,47.92377,20.58618C47.96967,20.063,48,19.53528,48,19a18.00063,18.00063,0,0,0-35.94379-1.44031,18.31279,18.31279,0,0,0,.01111,2.91A18.06763,18.06763,0,0,1,27.94659,4.11389Z"
    style="fill:#fff;opacity:0.75"/>
  <path
    d="M30,60a8.00917,8.00917,0,0,1-8-8V46.5a1,1,0,0,1,2,0V52a6,6,0,0,0,12,0V46.5a1,1,0,0,1,2,0V52A8.00917,8.00917,0,0,1,30,60Z"
    style="fill:#6d6daa"/>
  <path
    d="M34.6665,48h-9.333A5.33951,5.33951,0,0,1,20,42.6665V39a1,1,0,0,1,1-1H39a1,1,0,0,1,1,1v3.6665A5.33951,5.33951,0,0,1,34.6665,48ZM22,40v2.6665A3.33754,3.33754,0,0,0,25.3335,46h9.333A3.33754,3.33754,0,0,0,38,42.6665V40Z"
    style="fill:#6d6daa"/>
  <path
    d="M39,40H21a1,1,0,0,1-1-1v-.34277a6.75512,6.75512,0,0,0-2.2959-5.19189A18.98809,18.98809,0,0,1,27.83691.11963a18.99005,18.99005,0,0,1,14.397,33.39795A6.45968,6.45968,0,0,0,40,38.49609V39A1,1,0,0,1,39,40ZM21.97754,38H38.01367a8.41061,8.41061,0,0,1,2.93213-6.01221A16.99345,16.99345,0,0,0,28.05664,2.10791a17.16391,17.16391,0,0,0-15.00342,15.5293A16.85054,16.85054,0,0,0,18.999,31.94092,8.68106,8.68106,0,0,1,21.97754,38Z"
    style="fill:#6d6daa"/>
  <path d="M36.2002,56H23.8999a1,1,0,1,1,0-2H36.2002a1,1,0,0,1,0,2Z" style="fill:#6d6daa"/>
  <path d="M37,52H23.1001a1,1,0,0,1,0-2H37a1,1,0,0,1,0,2Z" style="fill:#6d6daa"/>
  <g style="opacity:0.5">
    <path d="M29.99951,40a1,1,0,0,1-1-1V35a1,1,0,0,1,2,0v4A1,1,0,0,1,29.99951,40Z" style="fill:#6d6daa"/>
    <path
      d="M29.99951,36a.99676.99676,0,0,1-.707-.293l-3-3A.99989.99989,0,0,1,27.70654,31.293l3,3a1,1,0,0,1-.707,1.707Z"
      style="fill:#6d6daa"/>
    <path
      d="M29.99951,36a1,1,0,0,1-.707-1.707l3-3A.99989.99989,0,0,1,33.70654,32.707l-3,3A.99676.99676,0,0,1,29.99951,36Z"
      style="fill:#6d6daa"/>
  </g>
</svg>
