<?xml version="1.0" ?><!DOCTYPE svg  PUBLIC '-//W3C//DTD SVG 1.1//EN'  'http://www.w3.org/Graphics/SVG/1.1/DTD/svg11.dtd'><svg height="60px" id="Layer_1" style="enable-background:new 0 0 60 60;" version="1.1" viewBox="0 0 60 60" width="60px" xml:space="preserve" xmlns="http://www.w3.org/2000/svg" xmlns:xlink="http://www.w3.org/1999/xlink"><style type="text/css">
	.st0{fill:#C2E4F8;}
	.st1{fill:#0A94E3;}
	.st2{fill:#FFFFFF;}
	.st3{fill:#ABCFD3;}
	.st4{fill-rule:evenodd;clip-rule:evenodd;fill:#FFFFFF;}
</style><polygon class="st0" points="54.0002632,47 18.0002651,47 18.0002651,1 44.0002632,1 54.0002632,11 "/><polygon class="st2" points="42.0002632,59 6.0002642,59 6.0002642,13 32.0002632,13 42.0002632,23 "/><path class="st1" d="M42,60H6c-0.5527344,0-1-0.4477539-1-1V13c0-0.5522461,0.4472656-1,1-1h26  c0.265625,0,0.5195312,0.1054688,0.7070312,0.2929688l10,10C42.8945312,22.4804688,43,22.7348633,43,23v36  C43,59.5522461,42.5527344,60,42,60z M7,58h34V23.4140625L31.5859375,14H7V58z"/><polygon class="st2" points="32.0002632,13 32.0002632,23 42.0002632,23 "/><path class="st1" d="M42,24H32c-0.5527344,0-1-0.4477539-1-1V13c0-0.4042969,0.2431641-0.769043,0.6171875-0.9238281  c0.3740234-0.1538086,0.8037109-0.0693359,1.0898438,0.2167969l10,10c0.2861328,0.2861328,0.3720703,0.7158203,0.2167969,1.0898438  C42.7695312,23.7563477,42.4042969,24,42,24z M33,22h6.5859375L33,15.4140625V22z"/><path class="st1" d="M54,48h-8c-0.5527344,0-1-0.4477539-1-1s0.4472656-1,1-1h7V11.4140625L43.5859375,2H19v7  c0,0.5522461-0.4472656,1-1,1s-1-0.4477539-1-1V1c0-0.5522461,0.4472656-1,1-1h26  c0.265625,0,0.5195312,0.1054688,0.7070312,0.2929688l10,10C54.8945312,10.4804688,55,10.7348633,55,11v36  C55,47.5522461,54.5527344,48,54,48z"/><polygon class="st0" points="44.0002632,1 44.0002632,11 54.0002632,11 "/><path class="st1" d="M54,12H44c-0.5527344,0-1-0.4477539-1-1V1c0-0.4042969,0.2431641-0.769043,0.6171875-0.9238281  c0.375-0.1542969,0.8037109-0.0693359,1.0898438,0.2167969l10,10c0.2861328,0.2861328,0.3720703,0.7158203,0.2167969,1.0898438  C54.7695312,11.7563477,54.4042969,12,54,12z M45,10h6.5859375L45,3.4140625V10z"/></svg>