<?xml version="1.0" ?><!DOCTYPE svg  PUBLIC '-//W3C//DTD SVG 1.1//EN'
  'http://www.w3.org/Graphics/SVG/1.1/DTD/svg11.dtd'>
<svg enable-background="new 0 0 512 512" id="Layer_1" version="1.1" viewBox="0 0 512 512" xml:space="preserve" xmlns="http://www.w3.org/2000/svg" xmlns:xlink="http://www.w3.org/1999/xlink"><g><g><g><path d="M432.6,57.7c-6.3-6.9-12.8-13.4-19.6-19.5c-75.7-67.9-192.8-5-184.6,96.3c2.4,29.6-4.5,55.2-21.9,72.9     s-42.9,24.9-72.5,23C32.9,223.7-28.9,341,39.5,415.6c3.1,3.4,6.3,6.7,9.5,9.9C158,533,336.3,527.1,437.7,409     C524.2,308.2,522,156,432.6,57.7z" fill="#F5E6C7"/></g></g><g><g><path d="M432.6,57.7c-6.3-6.9-12.8-13.4-19.6-19.5c-6.3-5.6-12.8-10.2-19.5-14.1c6.3,5.7,12.4,11.8,18.3,18.2     c89.4,98.3,91.7,250.5,5.1,351.3c-89.9,104.7-240.1,121.1-348.9,48.7c109.8,89.6,274,78.2,369.8-33.3     C524.2,308.2,522,156,432.6,57.7z" fill="#DFC89B"/></g></g><g><g><path d="M235.7,510C235.7,510,235.7,510,235.7,510c-72.4,0-140.7-28-192.2-78.8c-3.4-3.3-6.7-6.7-9.8-10.2     C1.5,385.9-6.3,339.1,12.8,295.7c19.7-44.7,63.9-73.5,112.8-73.5c2.9,0,5.8,0.1,8.8,0.3c28,1.8,51.3-5.3,66.4-20.6     c15.1-15.4,22-38.4,19.7-66.6c-2.8-35.1,8.5-68.4,31.8-93.7C275.4,16.4,307.7,2,340.9,2c28.4,0,55.2,10.5,77.3,30.4     c7,6.3,13.8,13,20.2,20c92.6,101.8,94.9,257.4,5.3,361.8C391.4,475.1,315.6,510,235.7,510z M125.6,238.1     c-43.2,0-80.8,24.5-98.2,64c-16.5,37.4-9.8,77.9,18,108.2c3,3.3,6.1,6.5,9.3,9.6c48.5,47.9,112.8,74.2,181,74.3c0,0,0,0,0,0     c75.3,0,146.7-32.9,196-90.3c84.4-98.3,82.3-244.8-5-340.7c-6-6.6-12.4-13-19-18.9c-19.2-17.2-42.2-26.3-66.7-26.3     c-28.8,0-56.9,12.5-77,34.4c-20.3,22-30.1,51-27.6,81.7c2.7,33-5.7,60.3-24.2,79.1c-18.4,18.7-46,27.5-78.7,25.3     C130.7,238.1,128.2,238.1,125.6,238.1z" fill="#C79326"/></g></g><g><g><circle cx="356.3" cy="129.1" fill="#82D24B" r="47.3"/></g><g><path d="M356.2,184.4c-28.7,0-52.9-22.5-55.1-51.2c-1.1-14.7,3.6-29,13.2-40.2c9.6-11.2,23-18,37.8-19.1     c30.3-2.3,57,20.9,59.3,51c1.1,14.7-3.6,29-13.2,40.2c-9.6,11.2-23.1,18-37.8,19.1C359,184.3,357.6,184.4,356.2,184.4z      M356.3,89.7c-1,0-2,0-3,0.1c-10.5,0.8-20.1,5.6-26.9,13.6c-6.9,8-10.2,18.1-9.4,28.6c1.6,21.4,20.4,38,42.2,36.4     c10.5-0.8,20.1-5.6,26.9-13.6c6.9-8,10.2-18.2,9.4-28.6C394,105.7,376.8,89.7,356.3,89.7z" fill="#6FAB35"/></g></g><g><g><circle cx="406.6" cy="277.7" fill="#F186F1" r="47.3"/></g><g><path d="M406.5,332.9c-28.7,0-52.9-22.5-55.1-51.2c-1.1-14.7,3.6-29,13.2-40.2c9.6-11.2,23-18,37.8-19.1     c30.3-2.3,57,20.9,59.3,51c1.1,14.7-3.6,29-13.2,40.2c-9.6,11.2-23.1,18-37.8,19.1C409.3,332.9,407.9,332.9,406.5,332.9z      M406.6,238.2c-1,0-2,0-3,0.1c-10.5,0.8-20.1,5.6-26.9,13.6c-6.9,8-10.2,18.2-9.4,28.6c1.6,21.4,20.4,38,42.2,36.4     c10.5-0.8,20.1-5.6,26.9-13.6c6.9-8,10.2-18.2,9.4-28.6C444.3,254.3,427.1,238.2,406.6,238.2z" fill="#E139CA"/></g></g><g><g><circle cx="304.8" cy="395.9" fill="#99DEE5" r="47.3"/></g><g><path d="M304.8,451.2c-28.7,0-52.9-22.5-55.1-51.2c-2.3-30.4,20.6-57,51-59.3c30.5-2.3,57,20.9,59.3,51     c1.1,14.7-3.6,29-13.2,40.2c-9.6,11.2-23.1,18-37.8,19.1C307.5,451.1,306.1,451.2,304.8,451.2z M304.9,356.5c-1,0-2,0-3,0.1     c-21.7,1.6-38,20.6-36.3,42.2c1.6,21.4,20.5,37.9,42.2,36.4c10.5-0.8,20.1-5.6,26.9-13.6c6.9-8,10.2-18.2,9.4-28.7     C342.6,372.5,325.3,356.5,304.9,356.5z" fill="#58AF7A"/></g></g><g><g><path d="M112.6,318.5c-9.7-8.7-19.6-24-39.1-76.8C41.6,155.5,0.6,14.6,12.8,10.1s72.9,129.1,104.8,215.3     c19.5,52.8,22,70.9,20.3,83.8L112.6,318.5z" fill="#EB6F3C"/></g><g><path d="M110.8,327.6l-3.6-3.2c-11.1-9.9-21.3-26.2-41.2-79.9C49.7,200.4,31.7,144,18.9,97.3     c-24.3-89-16.1-92-8.9-94.7l1.3-0.5L13.5,2C19.3,2,28.1,2,66,82.4c20.4,43.3,43.1,97,59,140.1c19.9,53.7,22.7,72.8,20.8,87.5     l-0.6,4.8L110.8,327.6z M19.1,27.1c4.8,36,33.2,134.6,61.8,211.8c16.3,44.1,25.7,61.4,33.7,70.3l15.8-5.9     c0.2-11.9-3.9-31.3-20.2-75.3C81.6,150.9,38.9,57.6,19.1,27.1z" fill="#C44D1A"/></g></g><g><g><path d="M105.5,321.1l39.6-14.7c17.6,6.4,54.1,25.5,44.8,51.7c-24.4,68.7-17.2,83.6-17.2,83.6     S119,427,105.1,389.5C95.5,363.5,96.3,337.5,105.5,321.1z" fill="#EB6F3C"/></g><g><path d="M187.6,454.7l-17.1-5.2c-2.3-0.6-57.7-16.3-72.8-57.1c-10.1-27.3-9.8-56.1,0.9-75l1.4-2.5l45.1-16.7     l2.7,1c29.2,10.7,59.7,33.2,49.5,61.8c-21.9,61.6-17.5,77.5-17.3,78.1L187.6,454.7z M111.1,327.5c-7,14.9-6.5,37.8,1.5,59.3     c8.7,23.5,35.8,37.3,51.2,43.5c0.6-12.9,4.7-35.6,18.6-74.8c6.4-17.9-20.3-33.7-37.3-40.5L111.1,327.5z" fill="#C44D1A"/></g></g></g></svg>
