<?xml version="1.0" ?><!DOCTYPE svg  PUBLIC '-//W3C//DTD SVG 1.1//EN'
  'http://www.w3.org/Graphics/SVG/1.1/DTD/svg11.dtd'>
<svg enable-background="new 0 0 256 256" height="256px" id="prohibit" version="1.1" viewBox="0 0 256 256" width="256px" xml:space="preserve" xmlns="http://www.w3.org/2000/svg" xmlns:xlink="http://www.w3.org/1999/xlink"><linearGradient gradientTransform="matrix(1 0 0 -1 -178 -11)" gradientUnits="userSpaceOnUse" id="SVGID_1_" x1="306" x2="306" y1="-3.2607" y2="-266.135"><stop offset="0" style="stop-color:#FED52F"/><stop offset="1" style="stop-color:#F2C719"/></linearGradient><circle cx="128" cy="128" fill="url(#SVGID_1_)" r="127"/><path d="M127.999,250.798c-69.437,0-125.85-55.729-126.973-124.899  C1.015,126.599,1,127.297,1,128c0,70.141,56.859,126.999,126.999,126.999C198.141,254.999,255,198.141,255,128  c0-0.703-0.016-1.401-0.025-2.102C253.85,195.068,197.438,250.798,127.999,250.798z" enable-background="new    " fill="#2C2C2C" opacity="0.1"/><path d="M226.105,145.48c0,5.531-4.526,10.058-10.059,10.058H40.271  c-5.531,0-10.057-4.524-10.057-10.058V119.03c0-5.531,4.525-10.057,10.057-10.057h175.777c5.531,0,10.06,4.525,10.06,10.057v26.451  H226.105z" enable-background="new    " fill="#2C2C2C" opacity="0.1"/><path d="M226.105,142.682c0,5.529-4.526,10.057-10.059,10.057H40.271c-5.531,0-10.057-4.526-10.057-10.057V116.23  c0-5.531,4.525-10.057,10.057-10.057h175.777c5.531,0,10.06,4.525,10.06,10.057v26.452H226.105z" fill="#FFFFFF"/><path d="M216.048,149.936H40.271c-5.531,0-10.057-4.524-10.057-10.056  v2.802c0,5.529,4.525,10.057,10.057,10.057h175.777c5.531,0,10.06-4.526,10.06-10.057v-2.802  C226.105,145.41,221.579,149.936,216.048,149.936z" enable-background="new    " fill="#2C2C2C" opacity="0.1"/></svg>
