<?xml version="1.0" ?><!DOCTYPE svg  PUBLIC '-//W3C//DTD SVG 1.1//EN'  'http://www.w3.org/Graphics/SVG/1.1/DTD/svg11.dtd'><svg height="60.001px" id="Layer_1" style="enable-background:new 0 0 60 60.001;" version="1.1" viewBox="0 0 60 60.001" width="60px" xml:space="preserve" xmlns="http://www.w3.org/2000/svg" xmlns:xlink="http://www.w3.org/1999/xlink"><g id="Refresh"><g><path d="M54,36H38c-2.209,0-4,1.791-4,4c0,2.21,1.791,4.002,4,4.002    h8.953C42.919,48.883,36.828,52,30,52c-10.07,0-18.554-6.768-21.166-16.001H0.602C3.38,49.692,15.486,60.001,30,60.001    c7.69,0,14.692-2.906,20-7.666V56c0,2.21,1.791,4.001,4,4.001C56.209,60.001,58,58.21,58,56V40C58,37.791,56.209,36,54,36z     M6,24.001h16c2.209,0,4-1.791,4-4.002c0-2.208-1.791-4-4-4h-8.953C17.081,11.117,23.173,8,30,8    c10.069,0,18.552,6.767,21.165,16.001h8.233c-2.78-13.693-14.885-24-29.398-24c-7.69,0-14.693,2.906-20,7.666V4.001    C10,1.791,8.209,0,6,0C3.791,0,2,1.791,2,4.001v15.998C2,22.21,3.791,24.001,6,24.001z" style="fill-rule:evenodd;clip-rule:evenodd;fill:#88C057;"/></g></g><g/><g/><g/><g/><g/><g/><g/><g/><g/><g/><g/><g/><g/><g/><g/></svg>