<?xml version="1.0" ?>
<svg id="Layer_1" style="enable-background:new 0 0 27.178 26;" version="1.1" viewBox="0 0 27.178 26" xml:space="preserve" xmlns="http://www.w3.org/2000/svg" xmlns:xlink="http://www.w3.org/1999/xlink"><g id="folder-switch-7"><polygon points="11.589,25 11.589,24 4.589,24 4.589,16.006 7.446,19.08 8.179,18.398 4.09,14 0,18.398 0.732,19.08 3.589,16.008    3.589,25  "/><polygon points="15.589,2 15.589,3 22.589,3 22.589,10.994 19.731,7.92 18.999,8.602 23.088,13 27.178,8.602 26.445,7.92    23.589,10.992 23.589,2  "/><path d="M4.589,0h-4v12h13V2h-6L4.589,0z M12.589,11h-11V1h2.697l3,2h5.303V11z"/><path d="M13.589,26h13V16h-6l-3-2h-4V26z M14.589,15h2.697l3,2h5.303v8h-11V15z"/></g></svg>
