<?xml version="1.0" ?>
<svg viewBox="0 0 15.98 15.89" xmlns="http://www.w3.org/2000/svg">
  <defs>
    <style>
      .cls-1{fill:#1a957a;}.cls-2{fill:#32b49a;}.cls-2,.cls-3,.cls-4{fill-rule:evenodd;}.cls-3{fill:#e4b42d;}.cls-4{fill:#59595b;}
    </style>
  </defs>
  <title/>
  <g data-name="Layer 2" id="Layer_2">
    <g data-name="Layer 1" id="Layer_1-2">
      <rect class="cls-1" height="1.96" rx="0.92" ry="0.92" transform="translate(9.09 -6.17) rotate(45)" width="4.74"
            x="9.62" y="6.91"/>
      <rect class="cls-1" height="1.96" rx="0.92" ry="0.92" transform="translate(29.47 3.57) rotate(135)" width="4.74"
            x="11.62" y="6.91"/>
      <path class="cls-2"
            d="M13.95,5.79a.28.28,0,0,0,0-.06v0a1,1,0,0,0-.12-.38A7,7,0,1,0,6.47,14V12A5,5,0,1,1,12,6.53l.06.58a1,1,0,0,0,1.1.88h0a1,1,0,0,0,.88-1.1Z"/>
      <path class="cls-3" d="M9,9.89H3a1,1,0,0,0-1,1v4a1,1,0,0,0,1,1H9a1,1,0,0,0,1-1v-4A1,1,0,0,0,9,9.89Z"/>
      <path class="cls-4" d="M9,9.89v-1a3,3,0,1,0-6,0v1Zm-2,0H5v-1a1,1,0,1,1,2,0Z"/>
      <path class="cls-4"
            d="M6.87,12.89a.84.84,0,1,0-1.2.76.33.33,0,0,0,0,0v.91A.36.36,0,0,0,6,15H6a.36.36,0,0,0,.36-.36v-.91a.33.33,0,0,0,0,0A.84.84,0,0,0,6.87,12.89Z"/>
    </g>
  </g>
</svg>
