<?xml version="1.0" ?><!DOCTYPE svg  PUBLIC '-//W3C//DTD SVG 1.1//EN'
  'http://www.w3.org/Graphics/SVG/1.1/DTD/svg11.dtd'>
<svg enable-background="new -38.177 0 512 512" height="512px" version="1.1" viewBox="-38.177 0 512 512" width="512px" xml:space="preserve" xmlns="http://www.w3.org/2000/svg" xmlns:xlink="http://www.w3.org/1999/xlink"><defs/><path d="M395.06,24.824c0,0-124.631-15.14-169.413,63.563c21.757,52.813,37.403,185.977,37.403,185.977  s105.55-10.791,98.274-104.326C351.058,38.024,359.858,49.759,395.06,24.824z" fill="#E2001A"/><path d="M210,92.93C164.806,14.463,40.587,29.365,40.587,29.365C75.789,54.301,84.59,42.567,74.321,174.578  C67.047,268.115,156.963,281.474,210,281.315c21.818-0.062,37.403-2.409,37.403-2.409S235.403,137.034,210,92.93z" fill="#E2001A"/><path d="M297.255,22.175C279.604,6.98,244.911,0,216.054,0c-28.856,0-68.808,12.936-86.606,25.915  c0,0,58.201,12.046,86.606,50.01C253.922,30.84,297.255,22.175,297.255,22.175z" fill="#E2001A"/><path d="M217.822,314.235C173.025,292.79,76.789,254.51,0,277.769c0,0,66.925,91.845,203.754,61.062V512h22.066  V337.391c140.922,34.937,209.826-59.622,209.826-59.622C358.857,254.51,262.621,292.79,217.822,314.235z" fill="#009036"/></svg>
