<?xml version="1.0" ?>
<svg id="Layer_1" style="enable-background:new 0 0 24 24;" version="1.1" viewBox="0 0 24 24" xml:space="preserve" xmlns="http://www.w3.org/2000/svg" xmlns:xlink="http://www.w3.org/1999/xlink"><g><path d="M22.854,5.146l-4-4C18.76,1.053,18.633,1,18.5,1H3C1.897,1,1,1.897,1,3v18c0,1.103,0.897,2,2,2h18   c1.103,0,2-0.897,2-2V5.5C23,5.367,22.947,5.24,22.854,5.146z" style="fill:#303C42;"/><path d="M6,2h11v6c0,0.551-0.448,1-1,1H7C6.448,9,6,8.551,6,8V2z" style="fill:#F2F2F2;"/><rect height="9" style="fill:#F2F2F2;" width="14" x="5" y="13"/><rect height="2" style="fill:#35A0DA;" width="14" x="5" y="13"/><path d="M22,21c0,0.551-0.448,1-1,1h-1v-9.5c0-0.276-0.224-0.5-0.5-0.5h-15C4.224,12,4,12.224,4,12.5V22H3   c-0.552,0-1-0.449-1-1V3c0-0.551,0.448-1,1-1h2v6c0,1.103,0.897,2,2,2h9c1.103,0,2-0.897,2-2V2h0.293L22,5.707V21z" style="fill:#4FC3F7;"/><rect height="0.75" style="opacity:0.5;fill:#FFFFFF;" width="11" x="6" y="2"/><path d="M2.75,21.75v-18c0-0.551,0.448-1,1-1H5V2H3C2.448,2,2,2.449,2,3v18   c0,0.478,0.343,0.859,0.792,0.958C2.777,21.889,2.75,21.824,2.75,21.75z" style="opacity:0.2;fill:#FFFFFF;"/><path d="M13.5,8h2C15.776,8,16,7.776,16,7.5v-4C16,3.224,15.776,3,15.5,3h-2C13.224,3,13,3.224,13,3.5v4   C13,7.776,13.224,8,13.5,8z" style="fill:#303C42;"/><rect height="3" style="fill:#4FC3F7;" width="1" x="14" y="4"/><linearGradient gradientUnits="userSpaceOnUse" id="SVGID_1_" x1="-0.9052" x2="24.3993" y1="6.6426" y2="18.4423"><stop offset="0" style="stop-color:#FFFFFF;stop-opacity:0.2"/><stop offset="1" style="stop-color:#FFFFFF;stop-opacity:0"/></linearGradient><path d="M22.854,5.146l-4-4C18.76,1.053,18.633,1,18.5,1H3C1.897,1,1,1.897,1,3v18   c0,1.103,0.897,2,2,2h18c1.103,0,2-0.897,2-2V5.5C23,5.367,22.947,5.24,22.854,5.146z" style="fill:url(#SVGID_1_);"/></g><g/><g/><g/><g/><g/><g/><g/><g/><g/><g/><g/><g/><g/><g/><g/></svg>
