<?xml version="1.0" ?><!DOCTYPE svg  PUBLIC '-//W3C//DTD SVG 1.1//EN'  'http://www.w3.org/Graphics/SVG/1.1/DTD/svg11.dtd'><svg enable-background="new 0 0 32 32" height="32px" id="Layer_1" version="1.1" viewBox="0 0 32 32" width="32px" xml:space="preserve" xmlns="http://www.w3.org/2000/svg" xmlns:xlink="http://www.w3.org/1999/xlink"><g><polygon fill="#2A69AE" points="1,1 28,1 31,4 31,31 1,31  "/><rect fill="#EEEEEE" height="16" width="22" x="5" y="15"/><rect fill="#28324E" height="10" width="21" x="5" y="1"/><path d="M10,1v10h16V1H10z M24,9h-4V3h4V9z" fill="#D0D3D6"/><rect fill="#B7BABC" height="1" width="18" x="7" y="19"/><rect fill="#B7BABC" height="1" width="18" x="7" y="22"/><rect fill="#F9C425" height="2" width="22" x="5" y="29"/><rect fill="#D0D3D6" height="2" width="2" x="2" y="27"/><rect fill="#B7BABC" height="1" width="18" x="7" y="25"/><rect fill="#D0D3D6" height="2" width="2" x="28" y="27"/></g><g><polygon fill="#F9C425" points="24,18 16,32 24,32 32,32  "/><path d="M24,29v2c0.6,0,1-0.4,1-1S24.6,29,24,29z" fill="#27314D"/><rect fill="#27314D" height="6" width="1" x="24" y="22"/><path d="M23,30c0,0.6,0.4,1,1,1v-2C23.4,29,23,29.4,23,30z" fill="#27314D"/><rect fill="#27314D" height="6" width="1" x="23" y="22"/></g></svg>