<?xml version="1.0" ?>
<svg height="512" id="Layer_1" version="1.1" viewBox="0 0 512.00003 512" width="512" xml:space="preserve" xmlns="http://www.w3.org/2000/svg" xmlns:cc="http://creativecommons.org/ns#" xmlns:dc="http://purl.org/dc/elements/1.1/" xmlns:rdf="http://www.w3.org/1999/02/22-rdf-syntax-ns#" xmlns:svg="http://www.w3.org/2000/svg"><defs id="defs7"/><g id="g2989"><g id="g2987" transform="matrix(0.96000035,0,0,0.96000035,10.240001,10.24035)"><g id="g16633" transform="matrix(0.98039668,0,0,0.98039668,16454.239,-12951.681)"><path d="m -16522.137,13642.483 c 57.693,0 106.327,26.383 120.915,62.259 h -241.834 c 14.587,-35.876 63.223,-62.259 120.919,-62.259 z" id="path13852-2" style="fill:#37484a;fill-opacity:1;fill-rule:evenodd"/><path d="m -16355.711,13311.74 c -4.121,0.09 -8.243,0.181 -12.364,0.255 l -88.423,195.934 c -0.07,0.236 -0.03,0.689 -0.03,0.988 0,45.37 42.398,82.199 94.669,82.273 l 0.03,0 c 52.271,-0.07 94.669,-36.903 94.669,-82.273 0,-0.299 0.07,-0.752 0,-0.988 l -88.551,-196.189 z m -6.118,11.439 83.357,184.75 -83.357,0 -0.03,0 -83.357,0 83.389,-184.75 z" id="path13860-0" style="fill:#1b8e99;fill-opacity:1;fill-rule:evenodd"/><path d="m -16688.789,13312.313 -88.296,195.616 c -0.07,0.236 -0.03,0.689 -0.03,0.988 0,45.37 42.398,82.199 94.668,82.273 l 0.03,0 c 52.271,-0.07 94.669,-36.903 94.669,-82.273 0,-0.299 0.07,-0.752 0,-0.988 l -87.978,-194.915 c -4.395,0.09 -8.762,-0.06 -13.064,-0.701 z m 6.373,10.866 83.357,184.75 -83.357,0 -0.03,0 -83.357,0 83.39,-184.75 z" id="path13891" style="fill:#1b8e99;fill-opacity:1;fill-rule:evenodd"/><rect height="16.314548" id="rect13897" rx="8.1572742" ry="8.1572742" style="fill:#37484a;fill-opacity:1;fill-rule:nonzero;stroke:none" width="346.68417" x="-16695.471" y="13282.076"/><path d="m -16522.139,13238.802 c -16.814,0 -30.565,12.595 -32.406,28.901 21.613,0.02 43.23,0.08 64.844,0.128 -1.783,-16.368 -15.58,-29.029 -32.438,-29.029 z m -32.629,73.83 0,318.197 c 9.612,-1.593 19.338,-2.447 28.965,-2.581 12.145,-0.26 24.321,0.623 36.293,2.645 l 0,-318.102 c -21.748,-0.02 -43.509,-0.1 -65.258,-0.159 z" id="rect13925" style="fill:#37484a;fill-opacity:1;fill-rule:nonzero;stroke:none"/></g></g></g></svg>
