<?xml version="1.0" ?><!DOCTYPE svg  PUBLIC '-//W3C//DTD SVG 1.1//EN'
  'http://www.w3.org/Graphics/SVG/1.1/DTD/svg11.dtd'>
<svg height="6.82666in" style="shape-rendering:geometricPrecision; text-rendering:geometricPrecision; image-rendering:optimizeQuality; fill-rule:evenodd; clip-rule:evenodd" viewBox="0 0 6.82666 6.82666" width="6.82666in" xml:space="preserve" xmlns="http://www.w3.org/2000/svg" xmlns:xlink="http://www.w3.org/1999/xlink"><defs><style type="text/css">
   <![CDATA[
    .fil0 {fill:none}
    .fil1 {fill:#757575;fill-rule:nonzero}
    .fil2 {fill:#BDBDBD;fill-rule:nonzero}
   ]]>
  </style></defs><g id="Layer_x0020_1"><rect class="fil0" height="6.82666" width="6.82666"/><rect class="fil0" height="5.12" width="5.12" x="0.853332" y="0.853329"/><path class="fil1" d="M2.22782 2.22781l-0.00314173 0.011748 -0.617421 0.165646 -0.629917 -0.62985c-0.100811,0.371953 -0.00559449,0.784787 0.286406,1.07782 0.306504,0.306433 0.747783,0.39585 1.13313,0.270323l0.00393701 0.00372835 2.59196 2.59099c0.101638,0.102811 0.236827,0.154181 0.370992,0.154181 0.130614,0 0.261161,-0.0486496 0.362638,-0.146004l-0.313228 -0.313228c-0.0348858,0.0348819 -0.0830787,0.0564646 -0.136315,0.0564646 -0.106469,0 -0.192776,-0.086311 -0.192776,-0.19278 0,-0.0532323 0.0215787,-0.101429 0.0564606,-0.136315l-2.91273 -2.91273z"/><path class="fil2" d="M3.12201 2.36599c0.104815,-0.374858 0.0095315,-0.792386 -0.284472,-1.08639 -0.292,-0.292276 -0.706075,-0.387283 -1.07804,-0.286406l0.629921 0.629917 -0.160929 0.602185 -0.000673228 0.00251969 2.91273 2.91273 0.00030315 -0.000295276c0.0348622,-0.0347087 0.0829331,-0.0561693 0.136012,-0.0561693 0.106472,0 0.19278,0.086311 0.19278,0.19278 0,0.0531457 -0.0215039,0.10126 -0.0562874,0.136138l-0.000177165 0.000177165 0.313228 0.313228 3.93701e-005 -3.93701e-005c0.00279134,-0.00267323 0.00556299,-0.00538583 0.00831102,-0.0081378 0.204587,-0.203689 0.204587,-0.536634 0,-0.742256l-2.61275 -2.60998z"/></g></svg>
