<?xml version="1.0" ?><!DOCTYPE svg  PUBLIC '-//W3C//DTD SVG 1.1//EN'
  'http://www.w3.org/Graphics/SVG/1.1/DTD/svg11.dtd'>
<svg enable-background="new 0 0 512 512" height="512px" id="Layer_1" version="1.1" viewBox="0 0 512 512" width="512px" xml:space="preserve" xmlns="http://www.w3.org/2000/svg" xmlns:xlink="http://www.w3.org/1999/xlink"><path d="M489.693,469.687c0-46.428-16.682-92.95-48.436-108.43S360.512,330,320.148,307H190.945  c-40.361,23-89.355,38.777-121.1,54.257S21.4,423.206,21.4,469.634c62.135,26.923,182.568,30.976,234.146,30.976  S427.559,496.609,489.693,469.687" fill="#0776B7"/><path d="M317,298.491c0,38.971-27.779,69.799-61.5,69.799c-33.723,0-61.5-30.828-61.5-69.799V205h123V298.491z" fill="#FBAD3E"/><path d="M377.711,172.203c0-16.022-9.211-24.035-17.283-24.035c-3.461,0-7.428-1.496-13.428-5.08V73H164v70.088  c-6,3.584-9.919,5.08-13.378,5.08c-8.074,0-17.22,8.013-17.22,24.035c0,24.023,26.356,49.18,40.713,62.168  c11.025,42.824,41.331,72.84,81.437,72.84c40.104,0,70.425-30.016,81.438-72.84C351.348,221.383,377.711,196.227,377.711,172.203" fill="#FFCA65"/><path d="M174,195.227l-20-39.051v-56.07c0,0-0.128-88.123,101.675-88.123c91.621,0,91.384,50.901,91.384,50.901  S357,68.053,357,92.092v64.084l-20,39.051v-50.901c0,0-14.4-50.901-30.545-50.901c-16.156,0-2.46,40.722-50.905,40.722  c-48.436,0-71.316-20.362-71.316-20.362S182,144.325,174,144.325V195.227z" fill="#7B7B7B"/><path d="M316.629,297.03c0,0,20.359,12.357,20.359,20.36c0,40.054-10.18,91.621-10.18,91.621  s-18.611-32.708-50.902-40.722c0,0,20.014-11.849,28.086-27.875C312.055,324.398,316.629,297.03,316.629,297.03" fill="#FFFFFF"/><path d="M194.465,297.03c0,0-20.359,12.357-20.359,20.36c0,40.054,10.18,91.621,10.18,91.621  s18.611-32.708,50.9-40.722c0,0-20.012-11.849-28.086-27.875C199.039,324.398,194.465,297.03,194.465,297.03" fill="#FFFFFF"/></svg>
