<?xml version="1.0" ?><!DOCTYPE svg  PUBLIC '-//W3C//DTD SVG 1.1//EN'
  'http://www.w3.org/Graphics/SVG/1.1/DTD/svg11.dtd'>
<svg enable-background="new 0 0 512 512" height="512px" id="Layer_1" version="1.1" viewBox="0 0 512 512" width="512px" xml:space="preserve" xmlns="http://www.w3.org/2000/svg" xmlns:xlink="http://www.w3.org/1999/xlink"><path d="M500.248,337.746c0-29.328-10.518-58.709-30.529-68.493C449.695,259.492,418.807,250,393.355,235h-81.443  c-25.449,15-56.338,24.492-76.352,34.253c-20.014,9.784-30.539,39.134-30.539,68.462c39.17,16.99,115.084,19.56,147.613,19.56  S461.078,354.736,500.248,337.746" fill="#AB55A0"/><path d="M388,232.226c0,24.356-15.836,43.623-35.5,43.623c-19.666,0-35.5-19.267-35.5-43.623V174h71V232.226z" fill="#FBAD3E"/><path d="M428.986,147.064c0-10.445-5.656-15.667-10.707-15.667c-2.166,0-4.279-0.976-8.279-3.321V82H295v46.076  c-4,2.346-5.98,3.321-8.146,3.321c-5.051,0-10.663,5.222-10.663,15.667c0,15.678,16.526,32.078,25.495,40.548  c6.9,27.937,25.854,47.512,50.926,47.512s44.023-19.575,50.912-47.512C412.492,179.143,428.986,162.742,428.986,147.064" fill="#FFCA65"/><path d="M297,163.867l-11-26.043v-37.371c0,0,0.231-58.75,66.403-58.75c59.551,0,59.763,33.93,59.763,33.93  S419,79.083,419,95.109v42.715l-10,26.043v-33.932c0,0-12.594-37.332-23.092-37.332c-10.508,0-1.705,30.542-33.18,30.542  c-31.477,0-46.177-13.581-46.177-13.581S302,129.936,297,129.936V163.867z" fill="#7B7B7B"/><path d="M314.121,224.947c0,0-17.479,8.829-17.479,13.998c0,25.868,11.074,57.266,11.074,57.266  s9.297-19.219,29.648-24.398c0,0-10.182-7.646-15.262-18.004C317.004,243.474,314.121,224.947,314.121,224.947" fill="#FFFFFF"/><path d="M389.148,224.947c0,0,17.477,8.829,17.477,13.998c0,25.868-11.074,57.266-11.074,57.266  s-9.295-19.219-29.646-24.398c0,0,10.18-7.646,15.262-18.004C386.266,243.474,389.148,224.947,389.148,224.947" fill="#FFFFFF"/><path d="M296.643,337.746c0-29.328-0.338-58.709-20.352-68.493C256.27,259.492,225.381,250,199.93,235h-81.441  c-25.451,15-56.34,24.492-76.352,34.253c-20.014,9.784-30.543,39.134-30.543,68.462c39.172,16.99,115.086,19.56,147.615,19.56  S257.473,354.736,296.643,337.746" fill="#0776B7"/><path d="M195,232.226c0,24.356-15.837,43.623-35.501,43.623S124,256.582,124,232.226V174h71V232.226z" fill="#FBAD3E"/><path d="M235.561,147.064c0-10.445-5.941-15.667-10.992-15.667c-2.168,0-4.568-0.976-8.568-3.321V82H102v46.076  c-4,2.346-6.191,3.321-8.357,3.321c-5.051,0-10.771,5.222-10.771,15.667c0,15.678,16.478,32.078,25.442,40.548  c6.9,27.937,25.825,47.512,50.899,47.512c25.072,0,44.012-19.575,50.901-47.512C219.08,179.143,235.561,162.742,235.561,147.064" fill="#FFCA65"/><path d="M103,163.867l-10-26.043v-37.371c0,0,0.019-58.75,66.19-58.75c59.551,0,59.37,33.93,59.37,33.93  s6.44,3.45,6.44,19.477v42.715l-10,26.043v-33.932c0,0-12.308-37.332-22.806-37.332c-10.508,0-1.559,30.542-33.036,30.542  c-31.475,0-46.392-13.581-46.392-13.581S108,129.936,103,129.936V163.867z" fill="#7B7B7B"/><path d="M122.695,224.947c0,0-17.479,8.829-17.479,13.998c0,25.868,11.074,57.266,11.074,57.266  s9.297-19.219,29.648-24.398c0,0-10.182-7.646-15.262-18.004C125.578,243.474,122.695,224.947,122.695,224.947" fill="#FFFFFF"/><path d="M197.723,224.947c0,0,17.479,8.829,17.479,13.998c0,25.868-11.076,57.266-11.076,57.266  s-9.295-19.219-29.646-24.398c0,0,10.182-7.646,15.26-18.004C194.842,243.474,197.723,224.947,197.723,224.947" fill="#FFFFFF"/><path d="M408.625,449.729c0-29.328-10.518-58.7-30.531-68.485c-20.021-9.76-50.91-19.244-76.361-34.244h-81.441  c-25.449,15-56.34,24.484-76.352,34.244c-20.014,9.785-30.541,39.13-30.541,68.458c39.17,16.99,115.084,19.558,147.613,19.558  S369.457,466.72,408.625,449.729" fill="#00B086"/><path d="M297,344.209c0,24.356-16.336,43.623-36,43.623c-19.666,0-36-19.267-36-43.623V286h72V344.209z" fill="#FBAD3E"/><path d="M337.365,259.048c0-10.444-5.845-15.669-10.896-15.669c-2.168,0-4.47-0.973-8.47-3.319V194H204v46.06  c-4,2.347-6.29,3.319-8.458,3.319c-5.049,0-10.819,5.225-10.819,15.669c0,15.678,16.451,32.081,25.419,40.552  c6.898,27.927,25.813,47.511,50.885,47.511s44.004-19.584,50.893-47.511C320.889,291.129,337.365,274.726,337.365,259.048" fill="#FFCA65"/><path d="M205,275.849l-10-26.042v-37.371c0,0-0.079-58.75,66.091-58.75c59.551,0,59.419,33.93,59.419,33.93  s6.49,3.451,6.49,19.479v42.713l-10,26.042v-33.931c0,0-12.406-37.331-22.904-37.331c-10.51,0-1.61,30.54-33.085,30.54  s-46.319-13.579-46.319-13.579S210,241.918,205,241.918V275.849z" fill="#7B7B7B"/><path d="M222.496,336.931c0,0-17.475,8.829-17.475,13.998c0,25.868,11.074,57.265,11.074,57.265  s9.295-19.218,29.645-24.397c0,0-10.18-7.646-15.26-18.005C225.381,355.462,222.496,336.931,222.496,336.931" fill="#FFFFFF"/><path d="M299.525,336.931c0,0,17.479,8.829,17.479,13.998c0,25.868-11.076,57.265-11.076,57.265  s-9.293-19.218-29.645-24.397c0,0,10.18-7.646,15.26-18.005C296.643,355.462,299.525,336.931,299.525,336.931" fill="#FFFFFF"/></svg>
