<svg xmlns="http://www.w3.org/2000/svg" viewBox="0 0 448.56 137.42">
  <title>Document</title>
  <g id="Layer_2" data-name="Layer 2">
    <g id="Layer_1-2" data-name="Layer 1">
      <g id="Document">
        <g id="Spread">
          <g id="Layer_1-3" data-name="Layer 1">
            <path
              d="M0,130V7.5A7.44,7.44,0,0,1,7.44.06H378.78V14.94H14.88v107.6h418.8V106.73h14.88V130a7.44,7.44,0,0,1-7.44,7.44H7.44A7.44,7.44,0,0,1,0,130Z"
              style="fill: #00a1ab"/>
          </g>
          <g id="Layer_2-2" data-name="Layer 2">
            <path
              d="M176.94,102.32a34.84,34.84,0,0,1-14.32-13.5,38.06,38.06,0,0,1-5.06-19.58,38.74,38.74,0,0,1,4.91-19.45A34.89,34.89,0,0,1,176.11,36.3a39.78,39.78,0,0,1,19.65-4.85,38.81,38.81,0,0,1,19.31,4.78,33.87,33.87,0,0,1,13.29,13.43,40.73,40.73,0,0,1,4.77,20c0,1.2-.09,2.91-.27,5.12h-58a20.1,20.1,0,0,0,8,12.94q6.44,4.79,16,4.78,12.18,0,20.07-8l9.27,10.66a31.3,31.3,0,0,1-12.6,9,50,50,0,0,1-38.61-1.8ZM34.47,106.19V32.28H50.94v9.55a27.21,27.21,0,0,1,10.8-7.75,38.93,38.93,0,0,1,14.67-2.63q14,0,22.42,8.17t8.44,24.22v42.35H90V66.06q0-9.7-4.56-14.6t-13-4.92q-9.54,0-15.08,5.75T51.77,68.82v37.37Zm239.54,0L302.8,68.68l-27.55-36.4h19.24L312.62,56.5l18.14-24.22h18.68L321.76,68.41l28.92,37.78H331.17l-19-25.6-19.1,25.6Zm123.81,0V0h17.29V106.19ZM209.88,50.28a20.58,20.58,0,0,0-14.12-5,20.42,20.42,0,0,0-21,18h41.93A20.37,20.37,0,0,0,209.88,50.28Z"
              style="fill: #00a1ab"/>
          </g>
        </g>
      </g>
    </g>
  </g>
</svg>
